<?xml version="1.0" encoding="UTF-8" standalone="no"?>
<svg
   xmlns:dc="http://purl.org/dc/elements/1.1/"
   xmlns:cc="http://creativecommons.org/ns#"
   xmlns:rdf="http://www.w3.org/1999/02/22-rdf-syntax-ns#"
   xmlns:svg="http://www.w3.org/2000/svg"
   xmlns="http://www.w3.org/2000/svg"
   xmlns:sodipodi="http://sodipodi.sourceforge.net/DTD/sodipodi-0.dtd"
   xmlns:inkscape="http://www.inkscape.org/namespaces/inkscape"
   id="Layer_1"
   data-name="Layer 1"
   viewBox="0 0 230 230"
   version="1.1"
   sodipodi:docname="simonyi_color (1).svg"
   width="230"
   height="230"
   inkscape:version="0.92.5 (2060ec1f9f, 2020-04-08)">
  <metadata
     id="metadata71">
    <rdf:RDF>
      <cc:Work
         rdf:about="">
        <dc:format>image/svg+xml</dc:format>
        <dc:type
           rdf:resource="http://purl.org/dc/dcmitype/StillImage" />
        <dc:title>simonyi_color</dc:title>
      </cc:Work>
    </rdf:RDF>
  </metadata>
  <sodipodi:namedview
     pagecolor="#ffffff"
     bordercolor="#666666"
     borderopacity="1"
     objecttolerance="10"
     gridtolerance="10"
     guidetolerance="10"
     inkscape:pageopacity="0"
     inkscape:pageshadow="2"
     inkscape:window-width="1848"
     inkscape:window-height="1016"
     id="namedview69"
     showgrid="false"
     inkscape:zoom="1.1657867"
     inkscape:cx="262.15169"
     inkscape:cy="80.417801"
     inkscape:window-x="72"
     inkscape:window-y="27"
     inkscape:window-maximized="1"
     inkscape:current-layer="Layer_1" />
  <defs
     id="defs4">
    <style
       id="style2">.cls-1{fill:#333132;}.cls-2{fill:#63bc47;}</style>
  </defs>
  <title
     id="title6">simonyi_color</title>
  <g
     id="g882"
     transform="matrix(1.4649575,0,0,1.4649575,-78.632473,-53.228272)">
    <path
       id="path60"
       d="M 132.22,47.37 A 67.53,67.53 0 1 1 64.69,114.9 67.52,67.52 0 0 1 132.22,47.37 m 0,-8.1 a 75.64,75.64 0 1 0 75.64,75.63 75.72,75.72 0 0 0 -75.64,-75.63 z"
       class="cls-2"
       inkscape:connector-curvature="0"
       style="fill:#63bc47" />
    <path
       id="path62"
       d="M 197.87,97 H 123 a 3.9,3.9 0 1 1 0,-7.79 h 74.83 a 3.9,3.9 0 0 1 0,7.79 z M 110.31,84.59 a 8.54,8.54 0 1 0 8.54,8.53 8.53,8.53 0 0 0 -8.54,-8.53 m 0,-8.11 A 16.64,16.64 0 1 1 93.67,93.12 16.66,16.66 0 0 1 110.31,76.48 Z"
       class="cls-2"
       inkscape:connector-curvature="0"
       style="fill:#63bc47" />
    <path
       id="path64"
       d="M 139.39,142.07 H 69 a 3.45,3.45 0 0 1 0,-6.9 h 70.43 a 3.45,3.45 0 0 1 0,6.9 z"
       class="cls-2"
       inkscape:connector-curvature="0"
       style="fill:#63bc47" />
    <path
       id="path66"
       d="m 152,129.75 a 8.54,8.54 0 1 1 -8.53,8.54 8.54,8.54 0 0 1 8.53,-8.54 m 0,-8.1 A 16.64,16.64 0 1 0 168.64,138.29 16.66,16.66 0 0 0 152,121.65 Z"
       class="cls-2"
       inkscape:connector-curvature="0"
       style="fill:#63bc47" />
  </g>
</svg>
