<svg
   xmlns="http://www.w3.org/2000/svg"
   enable-background="new 0 0 2447.6 2452.5"
   viewBox="0 0 2447.6 2452.5">
  <g
     id="g829"
     transform="matrix(7.6270022,-0.48226749,0.48226749,7.6270022,887.41968,974.41061)">
    <g
       id="g853"
       transform="rotate(15.32745,151.39917,113.094)">
      <path
         d="m 105.9,83.2 c -5.7,0 -10.2,4.9 -10.2,11 0,6.1 4.6,11 10.2,11 5.7,0 10.2,-4.9 10.2,-11 0,-6.1 -4.6,-11 -10.2,-11 z m -36.5,0 c -5.7,0 -10.2,4.9 -10.2,11 0,6.1 4.6,11 10.2,11 5.7,0 10.2,-4.9 10.2,-11 0.1,-6.1 -4.5,-11 -10.2,-11 z"
         id="path2-3"

         style="fill:#7289da" />
      <path
         d="M 154.5,0 H 20.5 C 9.2,0 0,9.2 0,20.5 v 134 C 0,165.8 9.2,175 20.5,175 h 113.4 l -5.3,-18.3 12.8,11.8 12.1,11.1 21.6,18.7 V 20.5 C 175,9.2 165.8,0 154.5,0 Z m -38.6,129.5 c 0,0 -3.6,-4.3 -6.6,-8 13.1,-3.7 18.1,-11.8 18.1,-11.8 -4.1,2.7 -8,4.6 -11.5,5.9 -5,2.1 -9.8,3.4 -14.5,4.3 -9.6,1.8 -18.4,1.3 -25.9,-0.1 -5.7,-1.1 -10.6,-2.6 -14.7,-4.3 -2.3,-0.9 -4.8,-2 -7.3,-3.4 -0.3,-0.2 -0.6,-0.3 -0.9,-0.5 -0.2,-0.1 -0.3,-0.2 -0.4,-0.2 -1.8,-1 -2.8,-1.7 -2.8,-1.7 0,0 4.8,7.9 17.5,11.7 -3,3.8 -6.7,8.2 -6.7,8.2 C 38.1,128.9 29.7,114.5 29.7,114.5 29.7,82.6 44.1,56.7 44.1,56.7 58.5,46 72.1,46.3 72.1,46.3 l 1,1.2 c -18,5.1 -26.2,13 -26.2,13 0,0 2.2,-1.2 5.9,-2.8 10.7,-4.7 19.2,-5.9 22.7,-6.3 0.6,-0.1 1.1,-0.2 1.7,-0.2 6.1,-0.8 13,-1 20.2,-0.2 9.5,1.1 19.7,3.9 30.1,9.5 0,0 -7.9,-7.5 -24.9,-12.6 l 1.4,-1.6 c 0,0 13.7,-0.3 28,10.4 0,0 14.4,25.9 14.4,57.8 0,-0.1 -8.4,14.3 -30.5,15 z"
         id="path4-6"

         style="fill:#7289da" />
    </g>
  </g>
  <g
     id="g10"
     transform="matrix(0.6024966,-0.11640481,0.11640481,0.6024966,-69.300115,210.74442)"
     style="clip-rule:evenodd;fill-rule:evenodd">
    <path
       d="M 897.4,0 C 762.1,0.1 652.6,109.9 652.7,245.2 652.6,380.5 762.2,490.3 897.5,490.4 h 244.8 V 245.3 C 1142.4,110 1032.8,0.2 897.4,0 c 0.1,0 0.1,0 0,0 m 0,654 H 244.8 C 109.5,654.1 -0.1,763.9 0,899.2 c -0.2,135.3 109.4,245.1 244.7,245.3 h 652.7 c 135.3,-0.1 244.9,-109.9 244.8,-245.2 C 1142.3,763.9 1032.7,654.1 897.4,654 Z"
       id="path2"

       style="fill:#36c5f0" />
    <path
       d="M 2447.6,899.2 C 2447.7,763.9 2338.1,654.1 2202.8,654 2067.5,654.1 1957.9,763.9 1958,899.2 v 245.3 h 244.8 c 135.3,-0.1 244.9,-109.9 244.8,-245.3 z m -652.7,0 v -654 C 1795,110 1685.5,0.2 1550.2,0 1414.9,0.1 1305.3,109.9 1305.4,245.2 v 654 c -0.2,135.3 109.4,245.1 244.7,245.3 135.3,-0.1 244.9,-109.9 244.8,-245.3 z"
       id="path4"

       style="fill:#2eb67d" />
    <path
       d="m 1550.1,2452.5 c 135.3,-0.1 244.9,-109.9 244.8,-245.2 0.1,-135.3 -109.5,-245.1 -244.8,-245.2 h -244.8 v 245.2 c -0.1,135.2 109.5,245 244.8,245.2 z m 0,-654.1 h 652.7 c 135.3,-0.1 244.9,-109.9 244.8,-245.2 0.2,-135.3 -109.4,-245.1 -244.7,-245.3 h -652.7 c -135.3,0.1 -244.9,109.9 -244.8,245.2 -0.1,135.4 109.4,245.2 244.7,245.3 z"
       id="path6"

       style="fill:#ecb22e" />
    <path
       d="m 0,1553.2 c -0.1,135.3 109.5,245.1 244.8,245.2 135.3,-0.1 244.9,-109.9 244.8,-245.2 V 1308 H 244.8 C 109.5,1308.1 -0.1,1417.9 0,1553.2 Z m 652.7,0 v 654 c -0.2,135.3 109.4,245.1 244.7,245.3 135.3,-0.1 244.9,-109.9 244.8,-245.2 v -653.9 c 0.2,-135.3 -109.4,-245.1 -244.7,-245.3 -135.4,0 -244.9,109.8 -244.8,245.1 0,0 0,0.1 0,0"
       id="path8"

       style="fill:#e01e5a" />
  </g>
</svg>
