<svg
   xmlns="http://www.w3.org/2000/svg"
   viewBox="0 0 32 32"
   fill="#8cc84b"
>
  <path
     style="fill:#68bd45;stroke-width:0.23902124"
     d="M 28.418007,1.0557898 A 7.0518436,7.0518436 0 0 1 27.952581,2.6533026 7.6711477,7.6711477 0 1 0 20.024798,15.786723 l 0.333047,0.179074 A 7.6678008,7.6678008 0 0 0 31.403828,7.9180321 C 31.162477,5.9689475 30.040963,3.6931564 28.418294,1.0559674 Z M 21.097353,15.581371 a 0.65587426,0.65587426 0 1 1 -0.304103,-0.875645 0.65587426,0.65587426 0 0 1 0.304103,0.875645 z m 9.60929,-4.607935 c -1.268618,2.886708 -5.398029,2.979211 -7.89343,3.6889 0,0 -0.441158,0.130982 -0.87423,0.310153 0,0 0.15301,-0.111908 0.350924,-0.244881 1.627689,-1.031452 2.437517,-1.34617 3.384274,-2.151983 1.785511,-1.504605 3.262215,-4.2301254 3.129892,-6.6731008 -0.242989,2.4367922 -2.13019,4.9250198 -4.076899,6.2118048 -1.334649,0.880145 -3.850659,2.022036 -3.850659,2.022036 l -0.119703,-0.03214 c -1.99955,-0.452591 -2.964917,-4.3278935 0.0067,-6.3459716 1.300812,-0.8852298 2.739334,-0.9030133 4.197061,-1.6327611 1.557012,-0.7775318 3.175435,-2.459054 3.57436,-4.2526072 1.471586,2.3755184 3.462049,6.166795 2.171008,9.1024449 z"
      />
  <path
     d="M 6.4907598,7.7632085 C 6.8646358,7.5047816 7.3667783,7.4586917 7.7709587,7.6482366 l 6.1787763,2.7870484 c 0.386384,0.173768 0.669411,0.561815 0.70404,0.986067 l 0.596979,6.647187 c 0.04213,0.441449 -0.190558,0.884744 -0.560338,1.122453 l -5.5531555,3.825303 a 1.2853515,1.2853515 0 0 1 -1.3026326,0.08076 L 5.9881832,22.240387 C 5.8621218,22.179737 5.7226146,22.135186 5.627534,22.027082 5.693358,21.91991 5.8251488,21.895172 5.9294941,21.841129 6.166729,21.741399 6.37957,21.602166 6.5927775,21.45595 6.6458645,21.41147 6.716616,21.42001 6.7739632,21.45065 l 1.5745875,0.731175 c 0.112375,0.05195 0.2134022,-0.03902 0.3003433,-0.09895 l 5.452555,-3.757202 c 0.06781,-0.04083 0.100479,-0.119215 0.08758,-0.196481 l -0.591242,-6.583177 c -3.1e-5,-0.08934 -0.05805,-0.165532 -0.141536,-0.194269 L 7.3264263,8.5900358 A 0.20269006,0.20269006 0 0 0 7.0974227,8.610105 l -5.5306773,3.815836 c -0.075553,0.04302 -0.1225508,0.127654 -0.104744,0.215399 l 0.591233,6.583178 c 9.35e-5,0.07841 0.048039,0.148067 0.1224452,0.175136 l 1.6358534,0.73908 c 0.3066262,0.131296 0.6735341,0.187687 0.9851615,0.04306 a 0.74154897,0.74154897 0 0 0 0.4157977,-0.736708 l -0.5862226,-6.54392 c -0.0156,-0.09638 0.068769,-0.184864 0.1637004,-0.183463 l 0.7484239,-0.06721 c 0.098256,-0.01131 0.1849349,0.08614 0.1803957,0.184818 L 6.30872,19.420591 C 6.3616878,20.005503 6.1785974,20.663236 5.6632479,20.998896 5.0275143,21.40344 4.1967616,21.405083 3.508192,21.132881 L 1.7509608,20.357565 C 1.3393631,20.195969 1.0367462,19.794296 0.99958614,19.352898 L 0.40260466,12.705711 A 1.2161403,1.2161403 0 0 1 0.93916414,11.594825 Z M 8.600351,12.218644 c 0.8459233,-0.12561 1.757846,-0.190627 2.560643,0.159667 0.62117,0.267837 1.010084,0.911923 1.080085,1.569761 -0.0088,0.09012 -0.09693,0.147686 -0.182192,0.14889 -0.246232,0.02166 -0.493063,0.04773 -0.740677,0.06506 -0.104527,0.01333 -0.173754,-0.07771 -0.195363,-0.169086 -0.09921,-0.308754 -0.299037,-0.605 -0.609117,-0.730525 -0.475436,-0.187115 -1.0022567,-0.128385 -1.4981367,-0.07889 -0.3606262,0.05224 -0.7473161,0.118244 -1.0349677,0.358501 -0.2218404,0.182728 -0.2630268,0.519978 -0.1557464,0.769441 0.095722,0.181507 0.3192832,0.222481 0.5020755,0.262649 1.0492012,0.175789 2.1329613,0.05661 3.1701673,0.314388 0.428977,0.106411 0.861296,0.349516 1.043223,0.772451 0.238567,0.567251 0.22003,1.272748 -0.152953,1.778778 -0.302121,0.416275 -0.77414,0.665152 -1.253361,0.828308 -0.63838,0.203756 -1.3136217,0.267875 -1.9807302,0.26227 C 8.5250513,18.515249 7.8633772,18.409887 7.3452721,18.02955 6.902608,17.709945 6.6528196,17.172489 6.6244028,16.635007 c -0.00313,-0.09105 0.081236,-0.162159 0.1690488,-0.162601 l 0.7385709,-0.06638 c 0.098842,-0.01584 0.1794096,0.0633 0.1927353,0.156414 0.072324,0.291318 0.2138239,0.601242 0.4912508,0.750051 0.5344597,0.280587 1.1661245,0.201025 1.7450227,0.158465 0.4771887,-0.06419 1.0142967,-0.118889 1.3772657,-0.471138 0.190571,-0.199277 0.224028,-0.506548 0.145039,-0.76153 C 11.403056,16.024124 11.15903,15.943293 10.955575,15.888601 9.9149863,15.659464 8.8274049,15.874279 7.7928561,15.601874 7.3732347,15.494618 6.9554086,15.258153 6.7617794,14.854137 6.4905885,14.282866 6.5247862,13.541714 6.9434976,13.047462 7.346181,12.557131 7.9805178,12.324949 8.5904272,12.207633 Z"
     style="stroke-width:0.49436599" />
  <g
     transform="matrix(0.16901577,-0.03718824,0.03718824,0.16901577,6.6686473,18.853598)"
     style="fill:#d40000">
    <path
       d="m 3.79,75.42 h 42.8 c 0,0 -8.18,-37.33 18.91,-52.45 5.91,-2.87 24.71,-13.6 55.48,9.16 0.98,-0.81 1.9,-1.46 1.9,-1.46 0,0 -28.17,-28.12 -59.54,-24.98 C 47.52,7.1 28.12,21.46 16.74,40.42 5.54,59.08 3.84,74.92 3.79,75.41 Z M 48.22,64.58 c 0.11,2.87 0.38,5.2 0.65,6.83 l 6.5,2.33 c -0.49,-2.11 -0.98,-4.5 -1.3,-7.04 z M 8.94,49.3 2.71,47.02 C 1.68,49.35 0.54,52.06 0,53.52 l 6.23,2.28 c 0.7,-1.84 1.84,-4.49 2.71,-6.5 z M 25.3,25.09 21.45,21.73 c -1.41,1.35 -2.76,2.71 -4.01,4.06 l 4.17,3.58 C 22.76,27.9 24,26.44 25.3,25.09 Z m 23.73,25.73 4.39,3.47 c 0.22,-2.11 0.6,-4.23 1.14,-6.34 l -3.9,-3.09 c -0.71,2.01 -1.19,4.01 -1.63,5.96 z m 7.86,-17.45 2.6,3.9 c 0.92,-1.35 2,-2.6 3.2,-3.85 L 60.25,29.74 C 59,30.88 57.86,32.13 56.89,33.37 Z M 45.78,8.99 43.34,5.25 c -1.35,0.7 -2.76,1.46 -4.23,2.33 l 2.49,3.79 c 1.42,-0.86 2.77,-1.67 4.18,-2.38 z m 24.6,14.25 1.25,3.74 c 1.57,-0.76 3.14,-1.41 4.71,-1.9 L 75.15,21.5 c -1.84,0.55 -3.42,1.15 -4.77,1.74 z M 67.78,3.3 c 0.16,0 0.38,0 0.54,0 L 67.24,0 c -1.68,0 -3.41,0.11 -5.2,0.33 l 1.03,3.2 C 64.64,3.36 66.21,3.3 67.78,3.3 Z m 20.05,16.91 -0.22,3.41 c 1.79,0.05 3.58,0.27 5.36,0.65 l 0.22,-3.36 c -1.84,-0.38 -3.63,-0.59 -5.36,-0.7 z M 92.97,8.72 93.19,5.09 C 92.7,4.82 91.35,4.17 87.93,3.19 l -0.22,3.58 c 1.79,0.6 3.53,1.25 5.26,1.95 z"
       style="fill:#d40000" />
  </g>
</svg>
