<svg xmlns="http://www.w3.org/2000/svg" width="340" height="558" fill="none" opacity=".3"><path d="M448.955 459.556v56.338H307.806c-16.082 0-29.166-12.637-29.166-28.169s13.084-28.17 29.166-28.17z" fill="#cbd5e0" fill-opacity=".373"/><path d="M452.422 515.461a2.168 2.168 0 01-2.167 2.167H305.292a29.686 29.686 0 110-59.372h144.963a2.167 2.167 0 010 4.333H305.292a25.352 25.352 0 100 50.705h144.963a2.168 2.168 0 012.167 2.167z" fill="#f9a826"/><path d="M448.955 472.557h-151.68a.433.433 0 110-.867h151.68a.433.433 0 010 .867zM448.955 482.958h-151.68a.433.433 0 110-.867h151.68a.433.433 0 010 .867zM448.955 493.359h-151.68a.433.433 0 110-.867h151.68a.433.433 0 010 .867zM448.955 503.76h-151.68a.433.433 0 110-.867h151.68a.433.433 0 010 .867z" fill="#cbd5e0"/><g fill="#cbd5e0"><path d="M475.64 401.576l-.134 56.339-141.149-.335c-16.082-.038-29.137-12.706-29.1-28.238.037-15.533 13.152-28.139 29.234-28.1z" fill-opacity=".373"/><path d="M478.974 457.49a2.168 2.168 0 01-2.172 2.161l-144.963-.344a29.686 29.686 0 01.14-59.372l144.964.344a2.167 2.167 0 11-.01 4.334l-144.964-.344a25.352 25.352 0 10-.12 50.705l144.963.343a2.168 2.168 0 012.162 2.172z"/><path d="M475.609 414.577l-151.68-.36a.433.433 0 11.001-.866l151.68.36a.433.433 0 11-.001.866zM475.584 424.978l-151.68-.36a.433.433 0 01.002-.866l151.68.36a.433.433 0 11-.002.866zM475.56 435.38l-151.681-.36a.433.433 0 01.002-.867l151.68.36a.433.433 0 11-.002.866zM475.535 445.78l-151.68-.36a.433.433 0 11.001-.866l151.68.36a.433.433 0 11-.001.866z"/></g><g fill="#cbd5e0"><path d="M275.038 346.065l51.149 23.619-59.174 128.147c-6.742 14.6-23.7 21.182-37.802 14.67-14.101-6.512-20.089-23.689-13.347-38.29z" fill-opacity=".371"/><path d="M327.247 366.355a2.168 2.168 0 011.059 2.875l-60.773 131.61a29.686 29.686 0 11-53.903-24.89l60.773-131.61a2.167 2.167 0 013.934 1.817l-60.773 131.61a25.352 25.352 0 1046.034 21.256l60.773-131.61a2.168 2.168 0 012.876-1.058z"/><path d="M286.842 351.516l-63.59 137.708a.433.433 0 11-.786-.364l63.589-137.708a.433.433 0 01.787.364zM296.284 355.876l-63.589 137.708a.433.433 0 11-.787-.363l63.59-137.708a.433.433 0 01.786.363zM305.727 360.236l-63.589 137.708a.433.433 0 11-.787-.363l63.59-137.708a.433.433 0 01.786.363zM315.17 364.597l-63.589 137.708a.433.433 0 11-.787-.364l63.59-137.708a.433.433 0 01.786.364z"/></g><path d="M170.784 533.964l-19.617-6.047 6.249-20.271 19.617 6.047zm-19.271-6.237l19.092 5.886 6.082-19.73-19.092-5.886z" fill="#3f3d56"/><g><path fill="#f9a826" d="M305.322 222.762l17.345-6.708 6.476 16.744-17.345 6.709z"/><path d="M307.593 238.896l-7.016-18.14 18.773-7.26 7.016 18.14zm-6.302-17.825l6.618 17.112 17.743-6.863-6.618-17.111z" fill="#3f3d56"/></g><g><path d="M277.262 292.955l-16.787-5.085 5.086-16.787 16.787 5.085zm-16.247-5.374l15.959 4.835 4.835-15.96-15.96-4.834z" fill="#3f3d56"/><path fill="#cbd5e0" d="M281.293 288.736l-14.554-4.409 4.41-14.554 14.553 4.41z"/></g></svg>
