<svg xmlns="http://www.w3.org/2000/svg" width="340" height="558" fill="none" opacity=".3"><g transform="matrix(.7121 -.11577 .11577 .7121 -31.931 153.957)"><path d="M110.705 544.001c-1.23-.01-2.476-.018-3.698-.056l.037-1.232c1.21.037 2.448.054 3.661.055 1.22 0 2.461-.02 3.693-.06l.04 1.233c-1.246.04-2.501.06-3.733.06zm-11.114-.52a117.02 117.02 0 01-7.37-.937l.194-1.217c2.41.384 4.863.696 7.293.926zm22.261-.014l-.117-1.227a115.05 115.05 0 007.291-.936l.197 1.218c-2.436.392-4.916.71-7.37.945zm-36.928-2.33a115.955 115.955 0 01-7.19-1.876l.35-1.183c2.34.692 4.734 1.316 7.113 1.855zm51.593-.03l-.274-1.203c2.384-.544 4.777-1.171 7.111-1.864l.351 1.183c-2.36.7-4.778 1.334-7.188 1.883zm-65.838-4.18c-2.32-.853-4.642-1.791-6.9-2.79l.5-1.128c2.233.988 4.53 1.917 6.825 2.76zm80.078-.049l-.426-1.157c2.28-.84 4.57-1.769 6.801-2.759l.5 1.128a115.28 115.28 0 01-6.875 2.788zm-93.681-5.97a116.86 116.86 0 01-6.48-3.651l.64-1.055c2.093 1.27 4.25 2.485 6.41 3.612zm107.241-.045l-.57-1.093a114.8 114.8 0 006.395-3.611l.64 1.054a116.132 116.132 0 01-6.465 3.65zm-119.952-7.665a117.092 117.092 0 01-5.958-4.447l.77-.965a115.504 115.504 0 005.894 4.4zm132.638-.044l-.707-1.01c2-1.398 3.98-2.879 5.887-4.4l.77.963a116.929 116.929 0 01-5.95 4.447zm-144.257-9.222a117.359 117.359 0 01-5.34-5.168l.884-.859c1.698 1.75 3.477 3.47 5.286 5.113zm155.862-.043l-.83-.913a115.863 115.863 0 005.281-5.115l.886.857a117.07 117.07 0 01-5.337 5.17zm-166.203-10.62a117.845 117.845 0 01-4.64-5.803l.988-.74a116.053 116.053 0 004.59 5.742zm176.54-.052l-.94-.8a115.927 115.927 0 004.59-5.747l.988.739a116.817 116.817 0 01-4.639 5.808zM13.506 491.381a117.06 117.06 0 01-3.86-6.344l1.074-.607a115.39 115.39 0 003.819 6.276zm194.337-.067l-1.034-.674a115.532 115.532 0 003.82-6.288l1.074.606a116.299 116.299 0 01-3.86 6.356zM6.202 478.46a115.669 115.669 0 01-3.014-6.782l1.143-.464c.917 2.255 1.92 4.513 2.982 6.709zm208.948-.096l-1.11-.536c1.061-2.2 2.064-4.463 2.982-6.73l1.144.463c-.928 2.29-1.942 4.58-3.016 6.803zM.613 464.708c-.78-2.343-1.493-4.74-2.119-7.123l1.194-.314c.618 2.359 1.324 4.73 2.096 7.047zm220.123-.13l-1.171-.388c.767-2.315 1.47-4.687 2.087-7.05l1.194.312a115.81 115.81 0 01-2.11 7.126zM-3.161 450.34c-.47-2.42-.87-4.888-1.185-7.335l1.223-.158c.312 2.422.707 4.863 1.173 7.257zm227.653-.135l-1.21-.234c.462-2.394.854-4.836 1.163-7.26l1.224.157a116.35 116.35 0 01-1.177 7.337zM-5.059 435.61c-.158-2.459-.24-4.958-.242-7.428l1.233-.001c.003 2.444.084 4.917.24 7.35zm231.433-.138l-1.231-.079c.154-2.43.231-4.902.231-7.347v-.27h1.233v.265c0 2.475-.078 4.974-.233 7.43zm-230.219-14.64l-1.231-.076c.153-2.463.387-4.952.695-7.397l1.224.154c-.305 2.42-.537 4.882-.688 7.32zm228.971-.405c-.16-2.438-.4-4.9-.714-7.316l1.222-.159c.318 2.442.561 4.93.723 7.395zM-2 406.255l-1.212-.234c.466-2.42 1.017-4.86 1.638-7.247l1.194.31a114.552 114.552 0 00-1.62 7.17zm225.23-.398a115.028 115.028 0 00-1.645-7.165l1.192-.315c.63 2.383 1.189 4.82 1.664 7.242zM1.7 392.032l-1.172-.386a115.51 115.51 0 012.562-6.989l1.144.462a114.198 114.198 0 00-2.535 6.913zm217.781-.384a114.925 114.925 0 00-2.555-6.894l1.142-.465c.932 2.283 1.8 4.627 2.583 6.967zM7.21 378.385l-1.112-.535a116.303 116.303 0 013.438-6.596l1.075.605a114.72 114.72 0 00-3.401 6.526zm206.727-.336a114.832 114.832 0 00-3.416-6.502l1.074-.609a115.604 115.604 0 013.452 6.573zM14.423 365.566l-1.034-.673a116.734 116.734 0 014.252-6.1l.99.737a115.37 115.37 0 00-4.208 6.036zm192.27-.29a115.103 115.103 0 00-4.22-6.017l.987-.74a116.6 116.6 0 014.266 6.08zm-183.48-11.498l-.94-.799a116.87 116.87 0 014.993-5.506l.887.857a115.985 115.985 0 00-4.94 5.448zm174.663-.254a116.27 116.27 0 00-4.954-5.433l.884-.86a116.977 116.977 0 015.008 5.491zM33.43 343.208l-.831-.912a116.714 116.714 0 015.65-4.825l.77.963a115.533 115.533 0 00-5.59 4.774zm154.202-.224a115.967 115.967 0 00-5.607-4.76l.769-.965a117.17 117.17 0 015.665 4.81zM44.9 334.026l-.708-1.01a116.316 116.316 0 016.216-4.065l.642 1.054a115.429 115.429 0 00-6.15 4.021zm131.225-.196a115.703 115.703 0 00-6.17-4.008l.639-1.056a116.584 116.584 0 016.236 4.052zm-118.683-7.444l-.573-1.093a116.18 116.18 0 016.68-3.234l.502 1.127a114.8 114.8 0 00-6.61 3.2zm106.098-.17a114.642 114.642 0 00-6.635-3.185l.498-1.129c2.26.997 4.517 2.08 6.707 3.22zm-92.69-5.798l-.429-1.157a115.628 115.628 0 017.05-2.352l.352 1.183c-2.34.697-4.686 1.48-6.973 2.326zm79.226-.14a114.378 114.378 0 00-6.982-2.301l.348-1.184c2.366.696 4.74 1.48 7.058 2.327zm-65.144-4.058l-.275-1.202c2.4-.55 4.853-1.03 7.292-1.425l.198 1.218c-2.413.391-4.84.865-7.215 1.409zm51.046-.09a114.64 114.64 0 00-7.22-1.384l.194-1.218c2.438.386 4.893.857 7.297 1.399zm-36.54-2.264l-.12-1.227c2.45-.238 4.944-.4 7.414-.482l.041 1.233c-2.444.081-4.912.241-7.336.476zm22.026-.038a116.394 116.394 0 00-7.337-.45l.037-1.234c2.467.074 4.963.227 7.415.456z" fill="#cbd5e0"/><circle r="28.989" cy="315.176" cx="106.336" fill="#f9a826"/><circle r="28.989" cy="394.124" cx="218.59" fill="#f9a826"/><circle r="28.989" cy="515.013" cx="183.433" fill="#f9a826"/><circle r="28.989" cy="519.947" cx="44.041" fill="#f9a826"/><circle r="28.989" cy="394.124" cx="2.1" fill="#f9a826"/><path d="M118.758 312.865h-10.111a3.467 3.467 0 01-3.467-3.467v-10.112a.289.289 0 00-.289-.288h-6.645a4.622 4.622 0 00-4.622 4.622v23.112a4.622 4.622 0 004.622 4.622h16.179a4.622 4.622 0 004.622-4.622v-13.578a.289.289 0 00-.289-.29zm-6.645 11.556h-11.555a1.156 1.156 0 110-2.312h11.555a1.156 1.156 0 010 2.312zm0-5.778h-11.555a1.156 1.156 0 110-2.312h11.555a1.156 1.156 0 110 2.312z" fill="#fff"/><path d="M118.124 310.307l-10.387-10.386a.144.144 0 00-.246.101v9.376a1.156 1.156 0 001.156 1.155h9.375a.144.144 0 00.102-.246zM187.626 509.302a1.536 1.536 0 101.087.45 1.536 1.536 0 00-1.087-.45z" fill="#fff"/><path d="M196.179 503.159v-.005a1.174 1.174 0 00-.871-.88c-1.715-.42-4.414.027-7.404 1.224a23.812 23.812 0 00-7.746 4.905 18.46 18.46 0 00-1.701 1.947 7.544 7.544 0 00-3.372.542c-3.323 1.463-4.272 5.206-4.525 6.743a1.439 1.439 0 001.565 1.669h.007l3.702-.404c.004.047.01.09.014.13a1.978 1.978 0 00.57 1.193l1.807 1.808a1.973 1.973 0 001.192.57l.124.013-.403 3.698v.007a1.439 1.439 0 001.283 1.58q.066.006.133.007a1.454 1.454 0 00.24-.02c1.545-.248 5.286-1.186 6.745-4.527a7.612 7.612 0 00.543-3.358 18.12 18.12 0 001.955-1.7 23.64 23.64 0 004.91-7.686c1.191-2.957 1.64-5.675 1.231-7.456zm-6.163 10.066a3.383 3.383 0 11-.002-4.784l.002.002a3.356 3.356 0 01.036 4.745z" fill="#fff"/><path d="M178.018 522.52a.92.92 0 00-.633.155c-.368.251-.737.5-1.11.742a.859.859 0 01-1.21-1.151l.7-1.209a.921.921 0 00-.872-1.434 3.526 3.526 0 00-2.051 1.005c-.211.211-.852.853-1.196 3.296a20.601 20.601 0 00-.186 2.117.921.921 0 00.897.944h.047a20.715 20.715 0 002.118-.184c2.445-.345 3.086-.987 3.297-1.197a3.482 3.482 0 001-2.057.921.921 0 00-.801-1.026zM34.064 535.7h-2.1a1.575 1.575 0 01-1.575-1.576v-9.451a1.575 1.575 0 011.575-1.576h2.1a1.575 1.575 0 011.575 1.576v9.451a1.575 1.575 0 01-1.575 1.575zM48.766 535.7h-2.1a1.575 1.575 0 01-1.575-1.576v-15.752a1.575 1.575 0 011.575-1.575h2.1a1.575 1.575 0 011.576 1.575v15.752a1.575 1.575 0 01-1.576 1.575zM56.118 535.7h-2.1a1.575 1.575 0 01-1.576-1.576v-23.103a1.575 1.575 0 011.575-1.576h2.1a1.575 1.575 0 011.576 1.576v23.103a1.575 1.575 0 01-1.575 1.575zM41.415 535.7h-2.1a1.575 1.575 0 01-1.575-1.576V505.77a1.575 1.575 0 011.575-1.575h2.1a1.575 1.575 0 011.576 1.575v28.354a1.575 1.575 0 01-1.576 1.575zM219.978 393.365l-1.5-1.502a1.84 1.84 0 00-2.594-.007l-10.433 9.629a1.948 1.948 0 00-.652 1.325 1.845 1.845 0 00.529 1.376l2.241 2.266.004.004a1.856 1.856 0 001.304.541h.068a1.93 1.93 0 001.332-.642l9.695-10.385a1.84 1.84 0 00.01-2.6zM232.038 390.33l-.018-.017-1.97-1.95a1.233 1.233 0 00-.877-.36 1.258 1.258 0 00-.735.239c0-.025.004-.05.005-.07a2.1 2.1 0 00-.3-1.45 14.827 14.827 0 00-1.425-1.652l-.004-.004a15.557 15.557 0 00-4.983-3.215 8.02 8.02 0 00-3.051-.6 5.814 5.814 0 00-3.721 1.303 6.892 6.892 0 00-.815.932.92.92 0 001.072 1.4 4.278 4.278 0 01.493-.152 3.647 3.647 0 011.06-.066 4.458 4.458 0 012.051.752 2.954 2.954 0 011.05 2.362 6.13 6.13 0 01-1.15 1.981.92.92 0 00.083 1.207l1.978 1.978a.92.92 0 001.264.036c.56-.5 1.411-1.253 1.709-1.437a2.14 2.14 0 01.845-.334 1.102 1.102 0 01.649.137.071.071 0 01-.018.055l-.105.1-.017.015a1.237 1.237 0 00-.003 1.75l.006.005 1.969 1.95a1.233 1.233 0 00.878.358 1.247 1.247 0 00.875-.356l3.19-3.15a.94.94 0 00.032-.034 1.257 1.257 0 00-.016-1.712zM6.702 392.398a1.15 1.15 0 01-.813-1.965l2.638-2.638-2.638-2.638a1.15 1.15 0 011.627-1.628l3.452 3.452a1.15 1.15 0 010 1.628l-3.452 3.452a1.147 1.147 0 01-.814.337z" fill="#fff"/><path d="M-11.708 395.85a1.15 1.15 0 01-1.151-1.151v-1.15a6.938 6.938 0 016.9-6.905H9.005a1.15 1.15 0 110 2.302H-5.955a4.63 4.63 0 00-4.603 4.606v1.147a1.15 1.15 0 01-1.15 1.15zM-2.503 405.055a1.147 1.147 0 01-.814-.337l-3.452-3.452a1.15 1.15 0 010-1.627l3.452-3.452a1.15 1.15 0 011.628 1.627l-2.639 2.638 2.639 2.639a1.15 1.15 0 01-.814 1.964z" fill="#fff"/><path d="M-4.804 401.603a1.15 1.15 0 010-2.301h14.958a4.63 4.63 0 004.603-4.606v-1.148a1.15 1.15 0 012.301 0v1.151a6.938 6.938 0 01-6.9 6.904z" fill="#fff"/></g><g fill="#3f3d56"><path d="M54.636 306.46l-18.808 5.39-5.57-19.434 18.807-5.391zm-18.63 5.059l18.304-5.247-5.422-18.915-18.304 5.246z"/><path d="M43.077 301.22l-18.808 5.391-5.57-19.435 18.807-5.39zm-18.63 5.06l18.304-5.247-5.422-18.916-18.304 5.247z"/></g><g fill="#f9a826"><path d="M70.418 233.075a1.607 1.607 0 01-.914-.822l-4.583-9.526a1.563 1.563 0 01.747-2.09l9.549-4.444a1.646 1.646 0 012.193.784 1.662 1.662 0 01-.788 2.207l-7.116 3.378a.926.926 0 00-.439 1.226l3.35 7.076c.613 1.296-.644 2.695-1.999 2.21zM81.695 237.107c-1.355-.485-1.44-2.363-.144-2.977l7.076-3.349a.926.926 0 00.439-1.225l-3.361-7.125a1.638 1.638 0 01.789-2.206 1.646 1.646 0 012.193.784l4.567 9.491c.377.775.036 1.73-.748 2.09l-9.584 4.46a1.607 1.607 0 01-1.227.057z"/></g></svg>
