<svg
   xmlns="http://www.w3.org/2000/svg"
   width="340"
   height="558"
   viewBox="0 0 340 558"
   style="fill:none;opacity:0.3;">
  <g
     id="g891"
     transform="matrix(0.71209725,-0.11576659,0.11576659,0.71209725,-30.157918,170.50831)">
    <path
       id="path34"
       d="m 110.7051,544.00145 c -1.23085,-0.01 -2.47586,-0.0181 -3.69857,-0.056 l 0.0379,-1.23294 c 1.21006,0.0373 2.44754,0.0542 3.66092,0.0554 1.21881,0 2.4608,-0.0199 3.69286,-0.0596 l 0.0397,1.23236 c -1.24561,0.0403 -2.50116,0.0608 -3.73291,0.0608 z m -11.113771,-0.52101 c -2.455675,-0.23253 -4.935751,-0.54752 -7.370949,-0.93601 l 0.194551,-1.2179 c 2.4093,0.38428 4.862872,0.69629 7.292649,0.9264 z m 22.261031,-0.0133 -0.11746,-1.22754 c 2.42889,-0.23252 4.88215,-0.54751 7.29145,-0.93541 l 0.19635,1.21791 c -2.43552,0.39211 -4.91529,0.71013 -7.37037,0.94504 z m -36.928243,-2.33039 c -2.404482,-0.5451 -4.823718,-1.17634 -7.190257,-1.87563 l 0.349653,-1.18298 c 2.341238,0.69207 4.734576,1.31608 7.113456,1.85515 z m 51.592743,-0.0307 -0.27406,-1.20225 c 2.38431,-0.5439 4.77705,-1.17092 7.11135,-1.86419 l 0.35116,1.18298 c -2.35963,0.70049 -4.77827,1.33413 -7.18847,1.88346 z m -65.838329,-4.17951 c -2.320157,-0.85229 -4.641516,-1.79071 -6.89963,-2.78997 l 0.499327,-1.12755 c 2.233721,0.98781 4.530082,1.9166 6.825542,2.75985 z m 80.078499,-0.0482 -0.42645,-1.1577 c 2.2813,-0.84024 4.56984,-1.76842 6.80175,-2.75864 l 0.50054,1.12755 c -2.25664,1.00109 -4.56986,1.93951 -6.87586,2.78879 z m -93.681111,-5.97025 c -2.183404,-1.1396 -4.363847,-2.36834 -6.480114,-3.65129 l 0.639669,-1.05527 c 2.093971,1.2703 4.250908,2.48519 6.411146,3.61274 z m 107.241251,-0.0451 -0.57101,-1.09323 c 2.15512,-1.12694 4.30723,-2.34184 6.39549,-3.61094 l 0.64087,1.05408 c -2.11117,1.28294 -4.28616,2.51048 -6.46537,3.65009 z M 44.364734,523.19836 c -2.022306,-1.41125 -4.026541,-2.90803 -5.957596,-4.44757 l 0.769169,-0.96492 c 1.910577,1.52388 3.893737,3.0044 5.894351,4.40058 z m 132.638586,-0.044 -0.70714,-1.0107 c 2.00033,-1.398 3.98076,-2.87852 5.88652,-4.40059 l 0.76977,0.96372 c -1.92623,1.53834 -3.92775,3.03451 -5.94915,4.44757 z m -144.257131,-9.2228 c -1.828057,-1.6594 -3.625393,-3.39831 -5.341117,-5.16735 l 0.885419,-0.85891 c 1.697652,1.75036 3.476016,3.47063 5.285102,5.11312 z m 155.861511,-0.0427 -0.83,-0.91313 c 1.80456,-1.63893 3.58142,-3.36037 5.28179,-5.11496 l 0.88542,0.85771 c -1.71784,1.77385 -3.51397,3.51338 -5.33721,5.17038 z M 22.404572,503.26863 c -1.600676,-1.87687 -3.161304,-3.82898 -4.639105,-5.8022 l 0.987509,-0.73966 c 1.462147,1.95273 3.00619,3.88439 4.590015,5.74076 z m 176.539628,-0.0512 -0.93842,-0.79989 c 1.58352,-1.85817 3.12787,-3.79223 4.58972,-5.74738 l 0.98781,0.73845 c -1.4775,1.97622 -3.03815,3.93077 -4.63911,5.80882 z M 13.506726,491.38054 c -1.349516,-2.06658 -2.648123,-4.20061 -3.8599986,-6.34309 l 1.0739446,-0.60714 c 1.198627,2.11958 2.483689,4.23133 3.819044,6.27562 z m 194.336824,-0.0669 -1.03358,-0.6734 c 1.33594,-2.04851 2.6207,-4.16388 3.81994,-6.28827 l 1.07455,0.60594 c -1.21186,2.14786 -2.51109,4.28614 -3.86091,6.35573 z M 6.2020324,478.46127 c -1.073347,-2.22017 -2.087359,-4.50177 -3.013733,-6.78218 l 1.142611,-0.46382 c 0.91674,2.25511 1.919909,4.51262 2.981808,6.70873 z m 208.9483276,-0.0964 -1.11066,-0.53609 c 1.0613,-2.19968 2.06477,-4.46322 2.98272,-6.72917 l 1.14321,0.46259 c -0.92761,2.29065 -1.94191,4.57949 -3.01527,6.80267 z M 0.61335745,464.70838 c -0.780308,-2.34304 -1.493158,-4.73969 -2.11897505,-7.12369 l 1.19320505,-0.31321 c 0.618891,2.3581 1.32422895,4.72948 2.09608695,7.0466 z m 220.12235255,-0.1307 -1.17091,-0.3879 c 0.76736,-2.31473 1.47028,-4.68669 2.08765,-7.0496 l 1.19381,0.31199 c -0.62461,2.38885 -1.33475,4.78608 -2.11055,7.12551 z M -3.1605086,450.34115 c -0.471319,-2.42014 -0.870055,-4.88787 -1.185372,-7.33511 l 1.223323,-0.15781 c 0.311998,2.42134 0.706522,4.86257 1.172722,7.25681 z m 227.6529186,-0.13553 -1.21067,-0.2337 c 0.46259,-2.39363 0.85471,-4.83607 1.16369,-7.25922 l 1.22393,0.15661 c -0.31261,2.44903 -0.70894,4.91735 -1.17695,7.3363 z M -5.0590336,435.61067 c -0.158111,-2.45869 -0.23973,-4.95773 -0.242438,-7.42789 l 1.233562,-10e-4 c 0.0025,2.44423 0.08342,4.91678 0.240026,7.34956 z m 231.4331136,-0.13793 -1.23115,-0.0783 c 0.15358,-2.43038 0.23129,-4.90293 0.23129,-7.34777 l -6.2e-4,-0.27044 h 1.23356 l 6.2e-4,0.26623 c 0,2.47496 -0.0789,4.97339 -0.2337,7.43028 z m -230.2191286,-14.63951 -1.231156,-0.0759 c 0.152962,-2.46351 0.386999,-4.95231 0.695686,-7.39776 l 1.223927,0.1542 c -0.305683,2.42011 -0.537272,4.88242 -0.688457,7.31942 z M 225.12606,420.42847 c -0.16022,-2.43821 -0.40055,-4.89992 -0.71435,-7.31644 l 1.22272,-0.15902 c 0.31742,2.44245 0.56076,4.93004 0.72278,7.39475 z m -227.1273786,-14.17391 -1.211277,-0.2331 c 0.465294,-2.42104 1.016455,-4.85956 1.637417,-7.24779 l 1.19381005,0.3102 c -0.614381,2.36293 -1.15948605,4.77524 -1.61995005,7.17069 z M 223.22935,405.85673 c -0.46981,-2.39664 -1.02395,-4.80715 -1.64557,-7.16495 l 1.19261,-0.31441 c 0.62883,2.3831 1.18839,4.81952 1.66362,7.24205 z M 1.6984474,392.03246 0.52692745,391.64574 c 0.77428795,-2.34395 1.63621495,-4.69512 2.56228595,-6.98847 l 1.14382,0.46196 c -0.916141,2.2687 -1.76873,4.59458 -2.534586,6.91323 z M 219.48047,391.64788 c -0.77459,-2.31534 -1.63411,-4.63459 -2.55506,-6.89361 l 1.14201,-0.4656 c 0.93119,2.28342 1.80035,4.62766 2.58277,6.9677 z M 7.2085194,378.38526 6.0966244,377.8504 c 1.070028,-2.22439 2.227096,-4.44395 3.438676,-6.59667 l 1.0751466,0.60534 c -1.1989286,2.12955 -2.3433466,4.32532 -3.4019276,6.52619 z m 206.7275506,-0.3364 c -1.0625,-2.19035 -2.21116,-4.37799 -3.41579,-6.5021 l 1.07335,-0.60835 c 1.2173,2.14669 2.37858,4.35812 3.45192,6.57257 z M 14.423163,365.56571 13.38897,364.89291 c 1.345298,-2.06778 2.77613,-4.12021 4.252413,-6.09974 l 0.98902,0.73724 c -1.460635,1.95876 -2.8764,3.9892 -4.20724,6.0353 z m 192.270547,-0.29033 c -1.33475,-2.03856 -2.75443,-4.06268 -4.22048,-6.01601 l 0.9866,-0.74027 c 1.48172,1.97442 2.91706,4.02022 4.26628,6.08048 z M 23.213492,353.77791 22.27387,352.97922 c 1.597665,-1.87956 3.277245,-3.7323 4.992069,-5.50645 l 0.88722,0.85711 c -1.696745,1.75547 -3.358562,3.58865 -4.939667,5.44803 z m 174.662788,-0.25419 c -1.58592,-1.85425 -3.25316,-3.68201 -4.95412,-5.43237 l 0.88421,-0.85951 c 1.71964,1.76872 3.40434,3.61605 5.00713,5.49019 z M 33.428626,343.208 32.59802,342.29609 c 1.825344,-1.66272 3.726281,-3.28629 5.649502,-4.82523 l 0.770976,0.96312 c -1.903046,1.52268 -3.783802,3.12908 -5.589872,4.77402 z m 154.202104,-0.22376 c -1.80878,-1.63742 -3.69466,-3.239 -5.60644,-4.75987 l 0.76857,-0.96553 c 1.93165,1.53744 3.83801,3.15588 5.66546,4.81107 z m -142.730809,-8.95777 -0.707731,-1.0101 c 2.01839,-1.41456 4.109659,-2.78214 6.215688,-4.06509 l 0.641779,1.05346 c -2.083461,1.2694 -4.152748,2.62253 -6.149736,4.02173 z m 131.225219,-0.19636 c -2.00815,-1.3977 -4.08376,-2.7463 -6.16961,-4.00846 l 0.63847,-1.05528 c 2.10815,1.27543 4.20663,2.63849 6.23586,4.05124 z m -118.68363,-7.44413 -0.572811,-1.09262 c 2.180721,-1.14382 4.428597,-2.23222 6.680389,-3.23479 l 0.501733,1.12695 c -2.227997,0.99173 -4.451479,2.06869 -6.609311,3.20046 z m 106.09862,-0.16926 c -2.16625,-1.12755 -4.39847,-2.19939 -6.63521,-3.186 l 0.49813,-1.12875 c 2.2605,0.99715 4.51713,2.08073 6.70687,3.22033 z m -92.690578,-5.79828 -0.42825,-1.15708 c 2.312928,-0.85561 4.684579,-1.64706 7.04931,-2.35208 l 0.352355,1.18237 c -2.339412,0.69717 -4.685473,1.48022 -6.973403,2.32679 z m 79.226508,-0.14004 c -2.29274,-0.83874 -4.64181,-1.61333 -6.98185,-2.30178 l 0.34815,-1.18361 c 2.36535,0.69599 4.74,1.47904 7.05774,2.32712 z m -65.14414,-4.05847 -0.275264,-1.20223 c 2.399968,-0.54993 4.85354,-1.02908 7.292649,-1.42511 l 0.197567,1.21791 c -2.413216,0.3915 -4.840587,0.86554 -7.214952,1.40943 z m 51.04644,-0.0897 c -2.37858,-0.53607 -4.80776,-1.00165 -7.22007,-1.38414 l 0.19335,-1.21851 c 2.43821,0.38669 4.89358,0.85741 7.29775,1.3992 z m -36.540949,-2.26384 -0.11926,-1.22754 c 2.449049,-0.23761 4.943579,-0.39994 7.414019,-0.48216 l 0.041,1.23294 c -2.44453,0.0814 -4.91256,0.24185 -7.335714,0.47676 z m 22.027019,-0.0382 c -2.42676,-0.22677 -4.89569,-0.37855 -7.33722,-0.45114 l 0.0368,-1.23294 c 2.46743,0.0735 4.96256,0.22677 7.41523,0.45595 z"
       style="fill:#cbd5e0;fill-opacity:1;stroke-width:0.6167807"
        />
    <circle
       id="circle36"
       r="28.988693"
       cy="315.17578"
       cx="106.33554"
       style="fill:#f9a826;stroke-width:0.6167807" />
    <circle
       id="circle38"
       r="28.988693"
       cy="394.12372"
       cx="218.58963"
       style="fill:#f9a826;stroke-width:0.6167807" />
    <circle
       id="circle40"
       r="28.988693"
       cy="515.01276"
       cx="183.43312"
       style="fill:#f9a826;stroke-width:0.6167807" />
    <circle
       id="circle42"
       r="28.988693"
       cy="519.94696"
       cx="44.040688"
       style="fill:#f9a826;stroke-width:0.6167807" />
    <circle
       id="circle44"
       r="28.988693"
       cy="394.12372"
       cx="2.0995893"
       style="fill:#f9a826;stroke-width:0.6167807" />
    <path
       id="path46"
       d="m 118.7581,312.86464 h -10.11139 a 3.466764,3.466764 0 0 1 -3.46676,-3.46676 v -10.1114 a 0.28888775,0.28888775 0 0 0 -0.2889,-0.2889 h -6.644624 a 4.6223521,4.6223521 0 0 0 -4.622352,4.62235 v 23.11175 a 4.6223521,4.6223521 0 0 0 4.622352,4.62235 h 16.178254 a 4.6223521,4.6223521 0 0 0 4.62235,-4.62235 v -13.57815 a 0.28889392,0.28889392 0 0 0 -0.28893,-0.28889 z m -6.64462,11.55587 H 100.5576 a 1.15559,1.15559 0 1 1 0,-2.31118 h 11.55588 a 1.15559,1.15559 0 0 1 0,2.31118 z m 0,-5.77794 H 100.5576 a 1.15559,1.15559 0 1 1 0,-2.31118 h 11.55588 a 1.15559,1.15559 0 1 1 0,2.31118 z"
       style="fill:#ffffff;stroke-width:0.6167807"
        />
    <path
       id="path48"
       d="m 118.12397,310.30717 -10.38658,-10.38659 a 0.14445004,0.14445004 0 0 0 -0.24629,0.10184 v 9.37542 a 1.155588,1.155588 0 0 0 1.15559,1.15559 h 9.37542 a 0.14445004,0.14445004 0 0 0 0.10184,-0.24629 z"
       style="fill:#ffffff;stroke-width:0.6167807"
        />
    <path
       id="path50"
       d="m 187.62598,509.30216 a 1.5362836,1.5362836 0 1 0 1.08673,0.44954 1.5362712,1.5362712 0 0 0 -1.08673,-0.44954 z"
       style="fill:#ffffff;stroke-width:0.6167807"
        />
    <path
       id="path52"
       d="m 196.17883,503.15877 v -0.005 a 1.1742271,1.1742271 0 0 0 -0.87089,-0.88067 c -1.71527,-0.41846 -4.41369,0.0276 -7.40396,1.22488 a 23.812127,23.812127 0 0 0 -7.74643,4.90525 18.459556,18.459556 0 0 0 -1.70089,1.94726 7.544363,7.544363 0 0 0 -3.37132,0.54164 c -3.32352,1.4626 -4.27268,5.20573 -4.52537,6.74258 a 1.4390111,1.4390111 0 0 0 1.56505,1.66924 h 0.007 l 3.70226,-0.40407 c 0.004,0.0472 0.01,0.0904 0.0138,0.13009 a 1.9777444,1.9777444 0 0 0 0.56984,1.19264 l 1.80681,1.80796 a 1.9725881,1.9725881 0 0 0 1.19207,0.57043 l 0.12375,0.0133 -0.40292,3.69765 v 0.007 a 1.4389988,1.4389988 0 0 0 1.28336,1.57937 q 0.0664,0.007 0.13322,0.008 a 1.4537521,1.4537521 0 0 0 0.23888,-0.0196 c 1.54548,-0.24866 5.28689,-1.18632 6.74545,-4.52768 a 7.6120239,7.6120239 0 0 0 0.54395,-3.35805 18.119858,18.119858 0 0 0 1.95416,-1.7009 23.640841,23.640841 0 0 0 4.91045,-7.68542 c 1.19093,-2.95626 1.63932,-5.67482 1.23122,-7.45573 z m -6.16238,10.06609 a 3.3828017,3.3828017 0 1 1 -0.002,-4.784 l 0.002,0.002 a 3.3557558,3.3557558 0 0 1 0.0359,4.74562 z"
       style="fill:#ffffff;stroke-width:0.6167807"
        />
    <path
       id="path54"
       d="m 178.01806,522.52083 a 0.92092762,0.92092762 0 0 0 -0.63316,0.15368 c -0.36781,0.25153 -0.73734,0.50021 -1.11034,0.74252 a 0.85886098,0.85886098 0 0 1 -1.20876,-1.1512 l 0.69936,-1.20876 a 0.92095846,0.92095846 0 0 0 -0.87261,-1.43382 3.5255186,3.5255186 0 0 0 -2.05086,1.005 c -0.21068,0.21124 -0.85132,0.85246 -1.1961,3.29589 a 20.601327,20.601327 0 0 0 -0.18534,2.11648 0.92095229,0.92095229 0 0 0 0.89705,0.94425 q 0.012,3.1e-4 0.0239,3.1e-4 h 0.023 a 20.71458,20.71458 0 0 0 2.11821,-0.18419 c 2.44457,-0.34536 3.08579,-0.98659 3.29646,-1.19725 a 3.4817888,3.4817888 0 0 0 1.00097,-2.0572 0.92095846,0.92095846 0 0 0 -0.80181,-1.02571 z"
       style="fill:#ffffff;stroke-width:0.6167807"
        />
    <path
       id="path56"
       d="m 34.064114,535.6995 h -2.100329 a 1.5752579,1.5752579 0 0 1 -1.575258,-1.57526 v -9.4515 a 1.5752579,1.5752579 0 0 1 1.575258,-1.57526 h 2.100329 a 1.5752579,1.5752579 0 0 1 1.575258,1.57526 v 9.4515 a 1.5752579,1.5752579 0 0 1 -1.575258,1.57526 z"
       style="fill:#ffffff;stroke-width:0.6167807"
        />
    <path
       id="path58"
       d="m 48.766427,535.6995 h -2.10033 a 1.5752579,1.5752579 0 0 1 -1.575257,-1.57526 v -15.75249 a 1.5752579,1.5752579 0 0 1 1.575257,-1.57525 h 2.10033 a 1.5752579,1.5752579 0 0 1 1.575258,1.57525 v 15.75249 a 1.5752579,1.5752579 0 0 1 -1.575258,1.57526 z"
       style="fill:#ffffff;stroke-width:0.6167807"
        />
    <path
       id="path60"
       d="m 56.117584,535.6995 h -2.10033 a 1.5752579,1.5752579 0 0 1 -1.575258,-1.57526 V 511.0206 a 1.5752579,1.5752579 0 0 1 1.575258,-1.57526 h 2.10033 a 1.5752579,1.5752579 0 0 1 1.575258,1.57526 v 23.10364 a 1.5752579,1.5752579 0 0 1 -1.575258,1.57526 z"
       style="fill:#ffffff;stroke-width:0.6167807"
        />
    <path
       id="path62"
       d="m 41.415271,535.6995 h -2.100299 a 1.5752579,1.5752579 0 0 1 -1.575258,-1.57526 v -28.35447 a 1.5752579,1.5752579 0 0 1 1.575258,-1.57526 h 2.100329 a 1.5752579,1.5752579 0 0 1 1.575258,1.57526 v 28.35447 a 1.5752579,1.5752579 0 0 1 -1.575288,1.57526 z"
       style="fill:#ffffff;stroke-width:0.6167807"
        />
    <path
       id="path64"
       d="m 219.97835,393.36454 -1.50057,-1.50114 a 1.8390674,1.8390674 0 0 0 -2.59424,-0.007 l -10.43273,9.62813 a 1.9483424,1.9483424 0 0 0 -0.6523,1.32529 1.8454079,1.8454079 0 0 0 0.52931,1.37585 l 2.24138,2.26609 0.004,0.004 a 1.8557513,1.8557513 0 0 0 1.30402,0.54137 h 0.0678 a 1.9298082,1.9298082 0 0 0 1.33163,-0.64195 l 9.69502,-10.38529 a 1.8390797,1.8390797 0 0 0 0.0112,-2.60083 z"
       style="fill:#ffffff;stroke-width:0.6167807"
        />
    <path
       id="path66"
       d="m 232.03809,390.33064 -0.0178,-0.0178 -1.96953,-1.94942 a 1.2333332,1.2333332 0 0 0 -0.87816,-0.35977 1.258023,1.258023 0 0 0 -0.73506,0.23793 c 0,-0.0247 0.004,-0.0488 0.005,-0.0701 a 2.100897,2.100897 0 0 0 -0.29884,-1.44943 14.826736,14.826736 0 0 0 -1.42529,-1.65174 l -0.004,-0.004 a 15.556665,15.556665 0 0 0 -4.9839,-3.21493 8.0200428,8.0200428 0 0 0 -3.0506,-0.60057 5.813775,5.813775 0 0 0 -3.72125,1.30344 6.8919077,6.8919077 0 0 0 -0.81494,0.93218 0.91953987,0.91953987 0 0 0 1.07183,1.39886 4.2779294,4.2779294 0 0 1 0.49311,-0.15115 3.6469812,3.6469812 0 0 1 1.06034,-0.0661 4.458017,4.458017 0 0 1 2.05114,0.75229 2.9540774,2.9540774 0 0 1 1.04943,2.36149 6.1299368,6.1299368 0 0 1 -1.14942,1.98161 0.9195337,0.9195337 0 0 0 0.0833,1.20689 l 1.97758,1.97758 a 0.91953987,0.91953987 0 0 0 1.26436,0.0357 c 0.5592,-0.49942 1.41092,-1.2523 1.70862,-1.43678 a 2.1403524,2.1403524 0 0 1 0.84483,-0.33333 1.102292,1.102292 0 0 1 0.64885,0.13678 0.07127518,0.07127518 0 0 1 -0.0178,0.0546 l -0.1046,0.0994 -0.0173,0.0161 a 1.2367749,1.2367749 0 0 0 -0.003,1.74906 l 0.006,0.006 1.96896,1.94884 a 1.2327288,1.2327288 0 0 0 0.87815,0.3592 1.2470874,1.2470874 0 0 0 0.87471,-0.35632 l 3.18965,-3.15057 c 0.0109,-0.0109 0.0218,-0.0224 0.0322,-0.0339 a 1.2568942,1.2568942 0 0 0 -0.016,-1.71145 z"
       style="fill:#ffffff;stroke-width:0.6167807"
        />
    <path
       id="path68"
       d="m 6.7022344,392.39773 a 1.1506599,1.1506599 0 0 1 -0.81362,-1.96428 l 2.638286,-2.63836 -2.638286,-2.63836 a 1.1506384,1.1506384 0 0 1 1.627247,-1.62725 l 3.4519796,3.45198 a 1.1505427,1.1505427 0 0 1 0,1.62725 l -3.4519796,3.45198 a 1.1470826,1.1470826 0 0 1 -0.813627,0.33704 z"
       style="fill:#ffffff;stroke-width:0.6167807"
        />
    <path
       id="path70"
       d="m -11.708324,395.84971 a 1.1506229,1.1506229 0 0 1 -1.15066,-1.15066 v -1.15066 a 6.9383205,6.9383205 0 0 1 6.9005424,-6.90396 h 14.962021 a 1.15066,1.15066 0 1 1 0,2.30132 h -14.958604 a 4.6301728,4.6301728 0 0 0 -4.6026404,4.60608 v 1.14721 a 1.1506229,1.1506229 0 0 1 -1.150659,1.15067 z"
       style="fill:#ffffff;stroke-width:0.6167807"
        />
    <path
       id="path72"
       d="m -2.5030446,405.05499 a 1.1470888,1.1470888 0 0 1 -0.81362,-0.33704 l -3.45198,-3.45198 a 1.1505242,1.1505242 0 0 1 0,-1.62724 l 3.45198,-3.45198 a 1.1506353,1.1506353 0 0 1 1.627246,1.62724 l -2.638292,2.63836 2.638292,2.63836 a 1.1506599,1.1506599 0 0 1 -0.813626,1.96428 z"
       style="fill:#ffffff;stroke-width:0.6167807"
        />
    <path
       id="path74"
       d="m -4.8043646,401.60301 a 1.15066,1.15066 0 0 1 0,-2.30132 H 10.154196 a 4.6301728,4.6301728 0 0 0 4.60264,-4.60608 v -1.14722 a 1.1506599,1.1506599 0 0 1 2.301319,0 v 1.15066 a 6.9383205,6.9383205 0 0 1 -6.900542,6.90396 z"
       style="fill:#ffffff;stroke-width:0.6167807"
        />
  </g>
</svg>
