<svg
   xmlns="http://www.w3.org/2000/svg"
   width="340"
   height="558"
   viewBox="0 0 340 558"
   style="fill:none;opacity:0.3;">
  <circle
     style="fill:#cbd5e0;fill-opacity:1;stroke-width:0.49542972"
     cx="18.602493"
     cy="521.02808"
     r="3.3755362"
     id="circle2" />
  <circle
     style="fill:#cbd5e0;fill-opacity:1;stroke-width:0.49542972"
     cx="35.689346"
     cy="521.02808"
     r="3.3755362"
     id="circle4" />
  <circle
     style="fill:#cbd5e0;fill-opacity:1;stroke-width:0.49542972"
     cx="52.776291"
     cy="521.02808"
     r="3.3755362"
     id="circle6" />
  <circle
     style="fill:#cbd5e0;fill-opacity:1;stroke-width:0.49542972"
     cx="36.343853"
     cy="368.45514"
     r="3.3755362"
     id="circle8" />
  <circle
     style="fill:#cbd5e0;fill-opacity:1;stroke-width:0.49542972"
     cx="19.737978"
     cy="316.4382"
     r="3.3755362"
     id="circle10" />
  <circle
     style="fill:#cbd5e0;fill-opacity:1;stroke-width:0.49542972"
     cx="18.602493"
     cy="538.32947"
     r="3.3755362"
     id="circle12" />
  <circle
     style="fill:#cbd5e0;fill-opacity:1;stroke-width:0.49542972"
     cx="35.689346"
     cy="538.32947"
     r="3.3755362"
     id="circle14" />
  <circle
     style="fill:#cbd5e0;fill-opacity:1;stroke-width:0.49542972"
     cx="52.776291"
     cy="538.32947"
     r="3.3755362"
     id="circle16" />
  <circle
     style="fill:#f9a826;stroke-width:0.49542972"
     cx="36.343853"
     cy="385.75653"
     r="3.3755362"
     id="circle18" />
  <circle
     style="fill:#cbd5e0;fill-opacity:1;stroke-width:0.49542972"
     cx="19.737978"
     cy="333.73959"
     r="3.3755362"
     id="circle20" />
  <circle
     style="fill:#e6e6e6;stroke-width:0.49542972"
     cx="53.91177"
     cy="333.73959"
     r="3.3755362"
     id="circle22" />
  <circle
     style="fill:#cbd5e0;fill-opacity:1;stroke-width:0.49542972"
     cx="36.343853"
     cy="403.05789"
     r="3.3755362"
     id="circle30" />
  <circle
     style="fill:#cbd5e0;fill-opacity:1;stroke-width:0.49542972"
     cx="19.737978"
     cy="351.04095"
     r="3.3755362"
     id="circle32" />
  <circle
     style="fill:#cbd5e0;fill-opacity:1;stroke-width:0.49542972"
     cx="36.343853"
     cy="420.35925"
     r="3.3755362"
     id="circle40" />
  <circle
     style="fill:#cbd5e0;fill-opacity:1;stroke-width:0.49542972"
     cx="19.737978"
     cy="368.34232"
     r="3.3755362"
     id="circle42" />
  <circle
     style="fill:#cbd5e0;fill-opacity:1;stroke-width:0.49542972"
     cx="53.91177"
     cy="368.34232"
     r="3.3755362"
     id="circle46" />
  <circle
     style="fill:#cbd5e0;fill-opacity:1;stroke-width:0.49542972"
     cx="70.998642"
     cy="368.34232"
     r="3.3755362"
     id="circle48" />
  <circle
     style="fill:#cbd5e0;fill-opacity:1;stroke-width:0.49542972"
     cx="88.085564"
     cy="368.34232"
     r="3.3755362"
     id="circle50" />
  <circle
     style="fill:#cbd5e0;fill-opacity:1;stroke-width:0.49542972"
     cx="105.17245"
     cy="368.34232"
     r="3.3755362"
     id="circle52" />
  <circle
     style="fill:#cbd5e0;fill-opacity:1;stroke-width:0.49542972"
     cx="53.91177"
     cy="385.64368"
     r="3.3755362"
     id="circle58" />
  <circle
     style="fill:#cbd5e0;fill-opacity:1;stroke-width:0.49542972"
     cx="70.998642"
     cy="385.64368"
     r="3.3755362"
     id="circle60" />
  <circle
     style="fill:#cbd5e0;fill-opacity:1;stroke-width:0.49542972"
     cx="88.085564"
     cy="385.64368"
     r="3.3755362"
     id="circle62" />
  <circle
     style="fill:#cbd5e0;fill-opacity:1;stroke-width:0.49542972"
     cx="105.17245"
     cy="385.64368"
     r="3.3755362"
     id="circle64" />
  <circle
     style="fill:#cbd5e0;fill-opacity:1;stroke-width:0.49542972"
     cx="53.91177"
     cy="402.94507"
     r="3.3755362"
     id="circle70" />
  <circle
     style="fill:#cbd5e0;fill-opacity:1;stroke-width:0.49542972"
     cx="70.998642"
     cy="402.94507"
     r="3.3755362"
     id="circle72" />
  <circle
     style="fill:#f9a826;stroke-width:0.49542972"
     cx="88.085564"
     cy="402.94507"
     r="3.3755362"
     id="circle74" />
  <circle
     style="fill:#cbd5e0;fill-opacity:1;stroke-width:0.49542972"
     cx="105.17245"
     cy="402.94507"
     r="3.3755362"
     id="circle76" />
  <circle
     style="fill:#cbd5e0;fill-opacity:1;stroke-width:0.49542972"
     cx="53.91177"
     cy="420.24643"
     r="3.3755362"
     id="circle82" />
  <circle
     style="fill:#cbd5e0;fill-opacity:1;stroke-width:0.49542972"
     cx="70.998642"
     cy="420.24643"
     r="3.3755362"
     id="circle84" />
  <circle
     style="fill:#cbd5e0;fill-opacity:1;stroke-width:0.49542972"
     cx="88.085564"
     cy="420.24643"
     r="3.3755362"
     id="circle86" />
  <circle
     style="fill:#cbd5e0;fill-opacity:1;stroke-width:0.49542972"
     cx="105.17245"
     cy="420.24643"
     r="3.3755362"
     id="circle88" />
  <circle
     style="fill:#cbd5e0;fill-opacity:1;stroke-width:0.49542972"
     cx="19.219318"
     cy="385.97418"
     r="3.3755362"
     id="circle90" />
  <circle
     style="fill:#cbd5e0;fill-opacity:1;stroke-width:0.49542972"
     cx="18.6339"
     cy="503.16943"
     r="3.3755362"
     id="circle92" />
  <circle
     style="fill:#cbd5e0;fill-opacity:1;stroke-width:0.49542972"
     cx="35.720821"
     cy="503.16943"
     r="3.3755362"
     id="circle94" />
  <circle
     style="fill:#cbd5e0;fill-opacity:1;stroke-width:0.49542972"
     cx="52.807701"
     cy="503.16943"
     r="3.3755362"
     id="circle96" />
  <circle
     style="fill:#cbd5e0;fill-opacity:1;stroke-width:0.49542972"
     cx="19.737978"
     cy="437.54782"
     r="3.3755362"
     id="circle98" />
  <circle
     style="fill:#cbd5e0;fill-opacity:1;stroke-width:0.49542972"
     cx="36.824856"
     cy="437.54782"
     r="3.3755362"
     id="circle100" />
  <circle
     style="fill:#cbd5e0;fill-opacity:1;stroke-width:0.49542972"
     cx="53.91177"
     cy="437.54782"
     r="3.3755362"
     id="circle102" />
  <circle
     style="fill:#cbd5e0;fill-opacity:1;stroke-width:0.49542972"
     cx="70.998642"
     cy="437.54782"
     r="3.3755362"
     id="circle104" />
  <circle
     style="fill:#cbd5e0;fill-opacity:1;stroke-width:0.49542972"
     cx="88.085564"
     cy="437.54782"
     r="3.3755362"
     id="circle106" />
  <circle
     style="fill:#cbd5e0;fill-opacity:1;stroke-width:0.49542972"
     cx="105.17245"
     cy="437.54782"
     r="3.3755362"
     id="circle108" />
  <circle
     style="fill:#cbd5e0;fill-opacity:1;stroke-width:0.49542972"
     cx="19.217342"
     cy="403.27502"
     r="3.3755314"
     id="circle110" />
  <circle
     style="fill:#cbd5e0;fill-opacity:1;stroke-width:0.49542972"
     cx="121.45502"
     cy="368.32898"
     r="3.3755362"
     id="circle112" />
  <circle
     style="fill:#cbd5e0;fill-opacity:1;stroke-width:0.49542972"
     cx="19.217304"
     cy="420.57623"
     r="3.3755314"
     id="circle114" />
  <circle
     style="fill:#cbd5e0;fill-opacity:1;stroke-width:0.49542972"
     cx="121.45502"
     cy="385.63034"
     r="3.3755362"
     id="circle116" />
  <circle
     style="fill:#e6e6e6;stroke-width:0.49542972"
     cx="-38.728172"
     cy="470.89664"
     r="3.3755362"
     id="circle118" />
  <path
     style="fill:#3f3d56;fill-opacity:1;stroke-width:0.49542972"
     d="M 172.96808,352.88725 H 39.201793 a 2.4800519,2.4800519 0 0 1 -2.477149,-2.47715 v -33.18167 a 2.4800568,2.4800568 0 0 1 2.477149,-2.47716 H 172.96808 a 2.4800568,2.4800568 0 0 1 2.47715,2.47716 v 33.18168 a 2.4800519,2.4800519 0 0 1 -2.47715,2.47714 z M 39.201793,315.74213 a 1.4879142,1.4879142 0 0 0 -1.486289,1.4863 v 33.18168 a 1.4879142,1.4879142 0 0 0 1.486289,1.48629 H 172.96808 a 1.4879142,1.4879142 0 0 0 1.48629,-1.48629 v -33.18168 a 1.4879142,1.4879142 0 0 0 -1.48629,-1.4863 z"
     id="path120"
      />
  <circle
     style="fill:#f9a826;stroke-width:0.49542972"
     cx="56.541828"
     cy="333.81915"
     r="10.404024"
     id="circle122" />
  <path
     style="fill:#cbd5e0;fill-opacity:1;stroke-width:0.49542972"
     d="m 80.57018,326.88311 a 1.734005,1.734005 0 1 0 0,3.46801 h 46.07496 a 1.734005,1.734005 0 1 0 0,-3.46801 z"
     id="path124"
      />
  <path
     style="fill:#cbd5e0;fill-opacity:1;stroke-width:0.49542972"
     d="m 80.57018,337.28713 a 1.7340075,1.7340075 0 1 0 0,3.46801 h 81.74593 a 1.7340075,1.7340075 0 1 0 0,-3.46801 z"
     id="path126"
      />
  <path
     style="fill:#3f3d56;fill-opacity:1;stroke-width:0.49542972"
     d="M 114.79164,304.20691 H -18.974627 a 2.4800568,2.4800568 0 0 1 -2.477154,-2.47714 v -33.18168 a 2.4800568,2.4800568 0 0 1 2.477154,-2.47714 H 114.79164 a 2.4800618,2.4800618 0 0 1 2.47715,2.47714 v 33.1817 a 2.4800568,2.4800568 0 0 1 -2.47715,2.47712 z m -133.766267,-37.1451 a 1.4879142,1.4879142 0 0 0 -1.486294,1.48628 v 33.1817 a 1.4879142,1.4879142 0 0 0 1.486294,1.48629 H 114.79164 a 1.4879142,1.4879142 0 0 0 1.48629,-1.48629 v -33.1817 a 1.4879142,1.4879142 0 0 0 -1.48629,-1.48628 z"
     id="path128"
      />
  <circle
     style="fill:#f9a826;stroke-width:0.49542972"
     cx="-1.6346321"
     cy="285.13879"
     r="10.404024"
     id="circle130" />
  <path
     style="fill:#cbd5e0;fill-opacity:1;stroke-width:0.49542972"
     d="m 22.393757,278.20278 a 1.73401,1.73401 0 0 0 0,3.46802 H 70.45044 a 1.73401,1.73401 0 0 0 0,-3.46802 z"
     id="path132"
      />
  <path
     style="fill:#cbd5e0;fill-opacity:1;stroke-width:0.49542972"
     d="m 22.393757,288.60681 a 1.7340055,1.7340055 0 0 0 0,3.46801 h 81.745913 a 1.7340055,1.7340055 0 0 0 0,-3.46801 z"
     id="path134"
      />
  <path
     style="fill:#3f3d56;stroke-width:0.49542972"
     d="M 80.559559,491.83993 H -53.206702 a 2.4800568,2.4800568 0 0 1 -2.477149,-2.47714 v -33.18168 a 2.4800568,2.4800568 0 0 1 2.477149,-2.47715 H 80.559559 a 2.4800618,2.4800618 0 0 1 2.47714,2.47715 v 33.18169 a 2.4800568,2.4800568 0 0 1 -2.47714,2.47713 z m -133.766261,-37.1451 a 1.4879142,1.4879142 0 0 0 -1.486289,1.48628 v 33.18169 a 1.4879142,1.4879142 0 0 0 1.486289,1.4863 H 80.559559 a 1.4879142,1.4879142 0 0 0 1.48629,-1.4863 v -33.18169 a 1.4879142,1.4879142 0 0 0 -1.48629,-1.48628 z"
     id="path136"
      />
  <circle
     style="fill:#f9a826;stroke-width:0.49542972"
     cx="-35.866653"
     cy="472.77182"
     r="10.404024"
     id="circle138" />
  <path
     style="fill:#cbd5e0;fill-opacity:1;stroke-width:0.49542972"
     d="m -11.838317,465.83581 a 1.7340045,1.7340045 0 0 0 0,3.468 h 44.093236 a 1.7340045,1.7340045 0 0 0 0,-3.468 z"
     id="path140"
      />
  <path
     style="fill:#cbd5e0;fill-opacity:1;stroke-width:0.49542972"
     d="m -11.838317,476.23983 a 1.7340045,1.7340045 0 0 0 0,3.468 h 81.745906 a 1.7340045,1.7340045 0 0 0 0,-3.468 z"
     id="path142"
      />
</svg>
