<svg xmlns="http://www.w3.org/2000/svg" width="340" height="558" fill="none" opacity=".3"><circle cx="18.602" cy="521.028" r="3.376" fill="#cbd5e0"/><circle cx="35.689" cy="521.028" r="3.376" fill="#cbd5e0"/><circle cx="52.776" cy="521.028" r="3.376" fill="#cbd5e0"/><circle cx="36.344" cy="368.455" r="3.376" fill="#cbd5e0"/><circle cx="19.738" cy="316.438" r="3.376" fill="#cbd5e0"/><circle cx="18.602" cy="538.329" r="3.376" fill="#cbd5e0"/><circle cx="35.689" cy="538.329" r="3.376" fill="#cbd5e0"/><circle cx="52.776" cy="538.329" r="3.376" fill="#cbd5e0"/><circle cx="36.344" cy="385.757" r="3.376" fill="#f9a826"/><circle cx="19.738" cy="333.74" r="3.376" fill="#cbd5e0"/><circle cx="53.912" cy="333.74" r="3.376" fill="#e6e6e6"/><circle cx="36.344" cy="403.058" r="3.376" fill="#cbd5e0"/><circle cx="19.738" cy="351.041" r="3.376" fill="#cbd5e0"/><circle cx="36.344" cy="420.359" r="3.376" fill="#cbd5e0"/><circle cx="19.738" cy="368.342" r="3.376" fill="#cbd5e0"/><circle cx="53.912" cy="368.342" r="3.376" fill="#cbd5e0"/><circle cx="70.999" cy="368.342" r="3.376" fill="#cbd5e0"/><circle cx="88.086" cy="368.342" r="3.376" fill="#cbd5e0"/><circle cx="105.172" cy="368.342" r="3.376" fill="#cbd5e0"/><circle cx="53.912" cy="385.644" r="3.376" fill="#cbd5e0"/><circle cx="70.999" cy="385.644" r="3.376" fill="#cbd5e0"/><circle cx="88.086" cy="385.644" r="3.376" fill="#cbd5e0"/><circle cx="105.172" cy="385.644" r="3.376" fill="#cbd5e0"/><circle cx="53.912" cy="402.945" r="3.376" fill="#cbd5e0"/><circle cx="70.999" cy="402.945" r="3.376" fill="#cbd5e0"/><circle cx="88.086" cy="402.945" r="3.376" fill="#f9a826"/><circle cx="105.172" cy="402.945" r="3.376" fill="#cbd5e0"/><circle cx="53.912" cy="420.246" r="3.376" fill="#cbd5e0"/><circle cx="70.999" cy="420.246" r="3.376" fill="#cbd5e0"/><circle cx="88.086" cy="420.246" r="3.376" fill="#cbd5e0"/><circle cx="105.172" cy="420.246" r="3.376" fill="#cbd5e0"/><circle cx="19.219" cy="385.974" r="3.376" fill="#cbd5e0"/><circle cx="18.634" cy="503.169" r="3.376" fill="#cbd5e0"/><circle cx="35.721" cy="503.169" r="3.376" fill="#cbd5e0"/><circle cx="52.808" cy="503.169" r="3.376" fill="#cbd5e0"/><circle cx="19.738" cy="437.548" r="3.376" fill="#cbd5e0"/><circle cx="36.825" cy="437.548" r="3.376" fill="#cbd5e0"/><circle cx="53.912" cy="437.548" r="3.376" fill="#cbd5e0"/><circle cx="70.999" cy="437.548" r="3.376" fill="#cbd5e0"/><circle cx="88.086" cy="437.548" r="3.376" fill="#cbd5e0"/><circle cx="105.172" cy="437.548" r="3.376" fill="#cbd5e0"/><circle cx="19.217" cy="403.275" r="3.376" fill="#cbd5e0"/><circle cx="121.455" cy="368.329" r="3.376" fill="#cbd5e0"/><circle cx="19.217" cy="420.576" r="3.376" fill="#cbd5e0"/><circle cx="121.455" cy="385.63" r="3.376" fill="#cbd5e0"/><circle cx="-38.728" cy="470.897" r="3.376" fill="#e6e6e6"/><path d="M172.968 352.887H39.202a2.48 2.48 0 01-2.477-2.477v-33.182a2.48 2.48 0 012.477-2.477h133.766a2.48 2.48 0 012.477 2.477v33.182a2.48 2.48 0 01-2.477 2.477zM39.202 315.742a1.488 1.488 0 00-1.486 1.486v33.182a1.488 1.488 0 001.486 1.486h133.766a1.488 1.488 0 001.486-1.486v-33.182a1.488 1.488 0 00-1.486-1.486z" fill="#3f3d56"/><circle cx="56.542" cy="333.819" r="10.404" fill="#f9a826"/><path d="M80.57 326.883a1.734 1.734 0 100 3.468h46.075a1.734 1.734 0 100-3.468zM80.57 337.287a1.734 1.734 0 100 3.468h81.746a1.734 1.734 0 100-3.468z" fill="#cbd5e0"/><path d="M114.792 304.207H-18.975a2.48 2.48 0 01-2.477-2.477v-33.182a2.48 2.48 0 012.477-2.477h133.767a2.48 2.48 0 012.477 2.477v33.182a2.48 2.48 0 01-2.477 2.477zm-133.767-37.145a1.488 1.488 0 00-1.486 1.486v33.182a1.488 1.488 0 001.486 1.486h133.767a1.488 1.488 0 001.486-1.486v-33.182a1.488 1.488 0 00-1.486-1.486z" fill="#3f3d56"/><circle cx="-1.635" cy="285.139" r="10.404" fill="#f9a826"/><path d="M22.394 278.203a1.734 1.734 0 000 3.468H70.45a1.734 1.734 0 000-3.468zM22.394 288.607a1.734 1.734 0 000 3.468h81.746a1.734 1.734 0 000-3.468z" fill="#cbd5e0"/><path d="M80.56 491.84H-53.207a2.48 2.48 0 01-2.477-2.477V456.18a2.48 2.48 0 012.477-2.477H80.56a2.48 2.48 0 012.477 2.477v33.182a2.48 2.48 0 01-2.477 2.477zm-133.767-37.145a1.488 1.488 0 00-1.486 1.486v33.182a1.488 1.488 0 001.486 1.486H80.56a1.488 1.488 0 001.486-1.486V456.18a1.488 1.488 0 00-1.486-1.486z" fill="#3f3d56"/><circle cx="-35.867" cy="472.772" r="10.404" fill="#f9a826"/><path d="M-11.838 465.836a1.734 1.734 0 000 3.468h44.093a1.734 1.734 0 000-3.468zM-11.838 476.24a1.734 1.734 0 000 3.468h81.746a1.734 1.734 0 000-3.468z" fill="#cbd5e0"/></svg>
