<svg xmlns="http://www.w3.org/2000/svg" width="280" height="1800" opacity=".3" fill="none"><path d="M47.046 474.826L27.43 468.78l6.25-20.272 19.616 6.047zm-19.27-6.237l19.091 5.885 6.082-19.73-19.092-5.885zM41.162 992.92a14.14 14.14 0 1114.141-14.141 14.157 14.157 0 01-14.14 14.14zm0-27.895a13.753 13.753 0 1013.754 13.754 13.769 13.769 0 00-13.754-13.754z" fill="#3f3d56"/><circle cx="33.414" cy="976.454" r="11.622" fill="#cbd5e0"/><path d="M39.795 40.185L18.921 33.86l6.323-20.875L46.12 19.31zm-20.204-6.683l19.846 6.012 6.012-19.846-19.846-6.011z" fill="#3f3d56"/><path fill="#cbd5e0" d="M44.808 34.938L26.71 29.456l5.483-18.098L50.29 16.84z"/><path d="M91.76 676.873a8.252 8.252 0 118.252-8.252 8.26 8.26 0 01-8.251 8.252zm0-16.058a7.806 7.806 0 107.806 7.806 7.814 7.814 0 00-7.805-7.806z" fill="#3f3d56"/><circle cx="87.772" cy="665.87" r="6.691" fill="#f9a826"/><path fill="#f9a826" d="M26.716 466.268l17.345-6.708 6.476 16.744-17.345 6.709z"/><path d="M28.987 482.402l-7.016-18.14 18.773-7.26 7.015 18.14zm-6.303-17.825l6.618 17.112 17.744-6.863-6.618-17.111z" fill="#3f3d56"/><g fill="#f9a826"><path d="M29.385 1764.84a1.607 1.607 0 01-.914-.822l-4.583-9.525a1.563 1.563 0 01.747-2.09l9.549-4.444a1.646 1.646 0 012.193.784 1.662 1.662 0 01-.789 2.206l-7.116 3.378a.926.926 0 00-.438 1.226l3.349 7.076c.613 1.297-.643 2.695-1.998 2.211zM40.662 1768.872c-1.355-.484-1.44-2.363-.144-2.976l7.076-3.35a.926.926 0 00.438-1.225l-3.36-7.124a1.638 1.638 0 01.789-2.206 1.646 1.646 0 012.193.784l4.566 9.49c.378.776.037 1.73-.747 2.09l-9.584 4.461a1.607 1.607 0 01-1.227.056z"/></g><path d="M111.693 1664.898c-.18 0-.334-.05-.437-.18l-3.135-3.597c-.514-.565.386-1.336.9-.745l2.672 3.058 8.041-9.019c.514-.59 1.388.206.874.771l-8.479 9.532a.602.602 0 01-.436.18z" fill="#f9a826"/><path d="M111.77 1671.167c-5.165 0-9.327-4.162-9.327-9.3a9.31 9.31 0 019.327-9.327c.41 0 .41.642 0 .642-7.734 0-11.614 9.352-6.14 14.8a8.617 8.617 0 009.454 1.875 8.646 8.646 0 005.344-7.99c0-.438.642-.438.642 0 0 5.138-4.162 9.3-9.3 9.3z" fill="#3f3d56"/><path fill="#f9a826" d="M37.856 1387.644l18.788 4.963-4.791 18.138-18.789-4.963z"/><path d="M29.882 1402.687l5.19-19.65 20.335 5.371-5.191 19.65zm5.6-18.946l-4.896 18.536 19.22 5.077 4.896-18.536z" fill="#3f3d56"/><g transform="matrix(.5858 0 0 .5858 -72.235 575.875)"><path d="M321.507 1370.71a17.478 17.478 0 1117.478-17.478 17.498 17.498 0 01-17.478 17.478zm0-34.012a16.533 16.533 0 1016.533 16.534 16.552 16.552 0 00-16.533-16.534z" fill="#3f3d56"/><circle r="14.172" cy="1347.404" cx="313.057" fill="#f9a826"/></g><path d="M97.709 1471.635l-3.286-12.363 12.794-3.401 3.286 12.363zm-2.843-12.106l3.1 11.662 12.093-3.214-3.1-11.663zM53.356 1110.487a12.486 12.486 0 1112.486-12.486 12.5 12.5 0 01-12.486 12.486zm0-24.63a12.144 12.144 0 1012.144 12.145 12.157 12.157 0 00-12.144-12.144z" fill="#3f3d56"/><circle cx="58.272" cy="1092.742" r="10.262" fill="#cbd5e0"/><g fill="#3f3d56"><path d="M161.854 39.45l-18.808 5.39-5.57-19.435 18.807-5.39zm-18.63 5.059l18.304-5.247-5.422-18.915-18.304 5.246z"/><path d="M150.295 34.21l-18.808 5.391-5.57-19.435 18.807-5.391zm-18.63 5.06l18.304-5.247-5.422-18.916-18.305 5.247z"/></g><path fill="#f9a826" d="M15.555 903.17l16.66 9.67-9.334 16.084-16.66-9.67z"/><path d="M3.99 915.46l10.112-17.424 18.031 10.465-10.112 17.424zm10.32-16.643l-9.54 16.436 17.043 9.892 9.54-16.437z" fill="#3f3d56"/><g><path d="M111.07 753.333l-16.788-5.086 5.086-16.787 16.787 5.085zm-16.248-5.374l15.959 4.834 4.835-15.959-15.96-4.835z" fill="#3f3d56"/><path fill="#cbd5e0" d="M115.1 749.114l-14.554-4.41 4.41-14.553 14.553 4.409z"/></g><g fill="#f9a826"><path d="M77.149 51.183a1.607 1.607 0 01-.914-.821l-4.584-9.526a1.563 1.563 0 01.748-2.09l9.549-4.444a1.646 1.646 0 012.193.784 1.662 1.662 0 01-.789 2.206l-7.116 3.379a.926.926 0 00-.438 1.225l3.349 7.077c.613 1.296-.644 2.695-1.998 2.21zM88.425 55.215c-1.355-.484-1.44-2.363-.143-2.976l7.076-3.349a.926.926 0 00.438-1.226l-3.36-7.124a1.638 1.638 0 01.788-2.206 1.646 1.646 0 012.194.784l4.566 9.49c.378.776.036 1.73-.747 2.09l-9.584 4.461a1.607 1.607 0 01-1.228.056z"/></g><path d="M66.47 1715.64a12.486 12.486 0 1112.486-12.485 12.5 12.5 0 01-12.486 12.486zm0-24.628a12.144 12.144 0 1012.144 12.143 12.157 12.157 0 00-12.144-12.143z" fill="#3f3d56"/><circle cx="71.386" cy="1697.896" r="10.262" fill="#cbd5e0"/></svg>
