<svg xmlns="http://www.w3.org/2000/svg" width="280" height="1800" opacity=".3" fill="none"><path d="M223.763 675.395a14.14 14.14 0 1114.14-14.14 14.157 14.157 0 01-14.14 14.14zm0-27.893a13.753 13.753 0 1013.753 13.753 13.769 13.769 0 00-13.753-13.753z" fill="#3f3d56"/><circle cx="216.014" cy="658.93" r="11.622" fill="#cbd5e0"/><path d="M233.436 30.535a8.252 8.252 0 118.251-8.251 8.26 8.26 0 01-8.251 8.251zm0-16.057a7.806 7.806 0 107.805 7.806 7.814 7.814 0 00-7.805-7.806z" fill="#3f3d56"/><circle cx="229.446" cy="19.532" r="6.691" fill="#f9a826"/><path fill="#f9a826" d="M150.712 366.402l17.346-6.709 6.476 16.745-17.345 6.709z"/><path d="M152.984 382.536l-7.016-18.14 18.772-7.26 7.016 18.14zm-6.303-17.825l6.618 17.112 17.744-6.863-6.618-17.111z" fill="#3f3d56"/><g fill="#f9a826"><path d="M204.929 1519.288a1.607 1.607 0 01-.914-.821l-4.583-9.526a1.563 1.563 0 01.747-2.09l9.549-4.444a1.646 1.646 0 012.193.784 1.662 1.662 0 01-.789 2.206l-7.115 3.379a.926.926 0 00-.439 1.225l3.35 7.077c.612 1.296-.644 2.695-2 2.21zM216.206 1523.32c-1.355-.484-1.44-2.363-.144-2.976l7.076-3.349a.926.926 0 00.439-1.226l-3.361-7.124a1.638 1.638 0 01.789-2.206 1.646 1.646 0 012.193.784l4.566 9.49c.378.776.037 1.73-.747 2.091l-9.584 4.46a1.607 1.607 0 01-1.227.056z"/></g><path d="M173.195 1038.797c-.18 0-.334-.051-.437-.18l-3.135-3.597c-.514-.565.386-1.336.9-.745l2.672 3.057 8.041-9.018c.514-.59 1.388.206.874.77l-8.479 9.533a.601.601 0 01-.436.18z" fill="#f9a826"/><path d="M173.272 1045.066c-5.165 0-9.327-4.162-9.327-9.301a9.31 9.31 0 019.326-9.326c.412 0 .412.642 0 .642-7.733 0-11.613 9.352-6.14 14.799a8.617 8.617 0 009.455 1.876 8.646 8.646 0 005.344-7.991c0-.437.642-.437.642 0 0 5.139-4.162 9.3-9.3 9.3z" fill="#3f3d56"/><path fill="#f9a826" d="M199.993 866.2l18.789 4.962-4.792 18.139-18.788-4.964z"/><path d="M192.019 881.242l5.19-19.65 20.335 5.372-5.19 19.649zm5.6-18.946l-4.896 18.536 19.22 5.077 4.897-18.536z" fill="#3f3d56"/><g transform="matrix(.5858 0 0 .5858 41.215 24.089)"><path d="M321.507 1370.71a17.478 17.478 0 1117.478-17.478 17.498 17.498 0 01-17.478 17.478zm0-34.012a16.533 16.533 0 1016.533 16.534 16.552 16.552 0 00-16.533-16.534z" fill="#3f3d56"/><circle r="14.172" cy="1347.404" cx="313.057" fill="#f9a826"/></g><path d="M231.577 1767.024c-.141-.11-.23-.245-.233-.408l-.261-4.733c-.058-.757 1.117-.812 1.16-.035l.228 4.028 11.809-2.162c.763-.15.962 1.009.214 1.138l-12.465 2.297a.592.592 0 01-.452-.126z" fill="#f9a826"/><path d="M226.918 1771.016c-3.438-2.677-4.051-7.604-1.388-11.024a7.853 7.853 0 0111.04-1.374c.274.213-.058.64-.332.427-5.147-4.008-12.576.206-11.757 6.668a7.269 7.269 0 005.322 6.148 7.293 7.293 0 007.697-2.549c.227-.29.654.042.428.333a7.844 7.844 0 01-11.01 1.37zM245.029 952.307l-3.286-12.363 12.793-3.401 3.287 12.363zm-2.843-12.106l3.1 11.662 12.093-3.214-3.1-11.662zM252.744 106.995l-16.787-5.085 5.086-16.788 16.787 5.086zm-16.247-5.374l15.959 4.835 4.834-15.96-15.959-4.834z" fill="#3f3d56"/><path fill="#cbd5e0" d="M256.775 102.776l-14.554-4.409 4.41-14.554 14.553 4.41z"/><path d="M229.883 1393.15a8.252 8.252 0 118.252-8.252 8.26 8.26 0 01-8.252 8.252zm0-16.058a7.806 7.806 0 107.806 7.806 7.814 7.814 0 00-7.806-7.806z" fill="#3f3d56"/><circle cx="227.89" cy="1378.155" r="6.691" fill="#f9a826"/><g fill="#f9a826"><path d="M226.708 395.452a1.607 1.607 0 01-.914-.821l-4.583-9.526a1.563 1.563 0 01.747-2.09l9.549-4.444a1.646 1.646 0 012.193.784 1.662 1.662 0 01-.789 2.206l-7.116 3.379a.926.926 0 00-.438 1.225l3.349 7.077c.613 1.296-.643 2.695-1.998 2.21zM237.985 399.484c-1.355-.484-1.44-2.363-.144-2.976l7.076-3.349a.926.926 0 00.438-1.226l-3.36-7.124a1.638 1.638 0 01.789-2.206 1.646 1.646 0 012.193.784l4.566 9.49c.378.776.037 1.73-.747 2.09l-9.584 4.461a1.607 1.607 0 01-1.227.056z"/></g><path d="M242.014 1470.089a12.486 12.486 0 1112.486-12.486 12.5 12.5 0 01-12.486 12.486zm0-24.63a12.144 12.144 0 1012.144 12.144 12.157 12.157 0 00-12.144-12.143z" fill="#3f3d56"/><circle cx="246.93" cy="1452.344" r="10.262" fill="#cbd5e0"/></svg>
