<svg xmlns="http://www.w3.org/2000/svg" width="340" height="558" fill="none" opacity=".3"><g transform="rotate(14.945 826.449 237.497) scale(.66759)"><path d="M373.675 534.252c-78.149 20.86-158.698-25.748-179.559-103.896-20.86-78.149 25.747-158.698 103.896-179.559 78.149-20.86 158.698 25.747 179.558 103.896 20.86 78.148-25.746 158.698-103.895 179.559zm-75.298-282.085c-77.393 20.658-123.55 100.43-102.891 177.823 20.658 77.394 100.43 123.551 177.823 102.892 77.394-20.659 123.551-100.43 102.892-177.824-20.659-77.394-100.43-123.55-177.824-102.891z" fill="#cbd5e0"/><path d="M363.075 494.54c-56.252 15.016-114.232-18.532-129.248-74.784-15.015-56.252 18.533-114.232 74.785-129.248 56.252-15.015 114.232 18.533 129.247 74.785 15.016 56.252-18.532 114.232-74.784 129.248zm-54.098-202.663c-55.496 14.814-88.594 72.016-73.78 127.513 14.813 55.497 72.016 88.595 127.512 73.781 55.497-14.814 88.595-72.016 73.781-127.513-14.814-55.497-72.016-88.594-127.513-73.78z" fill="#cbd5e0"/><path d="M352.354 454.379a64.02 64.02 0 1145.344-78.366 64.093 64.093 0 01-45.344 78.366zm-32.656-122.34a62.603 62.603 0 1076.63 44.34 62.674 62.674 0 00-76.63-44.34z" fill="#cbd5e0"/><circle cx="223.249" cy="465.861" r="32.508" transform="rotate(-14.946)" fill="#f9a826"/><circle cx="246.505" cy="321.038" r="10.307" transform="rotate(-14.946)" fill="#f9a826"/><circle cx="117.266" cy="566.037" r="10.307" transform="rotate(-14.946)" fill="#f9a826"/><circle cx="118.684" cy="477.456" r="10.307" transform="rotate(-14.946)" fill="#cbd5e0"/><circle cx="311.435" cy="408.009" r="10.307" transform="rotate(-14.946)" fill="#cbd5e0"/><circle cx="351.828" cy="536.274" r="10.307" transform="rotate(-14.946)" fill="#cbd5e0"/><circle cx="321.828" cy="490.713" r="10.307" transform="rotate(-14.946)" fill="#f9a826"/><circle cx="95.859" cy="392.397" r="10.307" transform="rotate(-14.946)" fill="#f9a826"/><circle cx="261.57" cy="607.266" r="10.307" transform="rotate(-14.946)" fill="#f9a826"/></g><g fill="#f9a826"><path d="M250.765 372.755a1.607 1.607 0 01-.914-.822l-4.583-9.526a1.563 1.563 0 01.747-2.09l9.549-4.444a1.646 1.646 0 012.193.785 1.662 1.662 0 01-.789 2.206l-7.115 3.378a.926.926 0 00-.439 1.226l3.35 7.076c.612 1.296-.644 2.695-2 2.21zM262.042 376.787c-1.355-.485-1.44-2.363-.144-2.977l7.076-3.348a.926.926 0 00.439-1.226l-3.361-7.124a1.638 1.638 0 01.789-2.207 1.646 1.646 0 012.193.785l4.567 9.49c.377.776.036 1.73-.748 2.09l-9.584 4.461a1.607 1.607 0 01-1.227.056z"/></g><path d="M304.401 424.043a12.486 12.486 0 1112.486-12.486 12.5 12.5 0 01-12.486 12.486zm0-24.63a12.144 12.144 0 1012.143 12.144 12.157 12.157 0 00-12.143-12.143z" fill="#3f3d56"/><circle cx="309.317" cy="406.298" r="10.262" fill="#cbd5e0"/><path d="M312.057 254.373l-19.617-6.047 6.25-20.272 19.616 6.047zm-19.27-6.237l19.091 5.885 6.082-19.73-19.092-5.885z" fill="#3f3d56"/><path fill="#f9a826" d="M291.727 245.815l17.345-6.708 6.476 16.744-17.345 6.709z"/><path d="M293.998 261.949l-7.016-18.14 18.773-7.26 7.015 18.14zm-6.303-17.825l6.618 17.112 17.744-6.863-6.618-17.111z" fill="#3f3d56"/></svg>
