<svg xmlns="http://www.w3.org/2000/svg" width="340" height="558" fill="none" opacity=".3"><g transform="rotate(14.945 826.449 237.497) scale(.66759)"><path data-name="Path 133" d="M441.83 774.073l1.876-6.805-2.123-15.148-3.48-19.095s-3.098-12.91-3.453-13.106c-21.029-11.452-63.788-52.287-76.578-77.928.987 2.157 19.25 92.21 83.759 132.082z" fill="#cbd5e0"/><path data-name="Path 134" d="M456.815 790.833c.453-.012-9.116-11.166-8.659-11.195-.36-.027-1.306-6.98-1.788-7.015l-20.053-5.44c-25.615-3.325-51.447-7.91-58.22-13.457 1.485 1.313 35.124 39.298 88.72 37.107z" fill="#cbd5e0"/><path d="M540.187 779.773c.79 2.958 1.68 5.85 2.688 8.672l75.445-20.14a52.675 52.675 0 0037.31-64.482L637.21 634.81a116.147 116.147 0 00-97.022 144.963z" fill="#f9a826"/><path d="M353.325 405.63l20.96 78.523a87.3 87.3 0 0084.046-109.769q-.922-3.454-2.102-6.762l-46.293 12.357a13.998 13.998 0 01-17.508-15.293l-18.217 4.862a29.474 29.474 0 00-20.886 36.082z" fill="#cbd5e0"/><path d="M365.506 481.15l2.368-.632-17.322-64.893a38.874 38.874 0 0127.533-47.585l137.486-36.7a38.874 38.874 0 0147.585 27.534l95.031 356.012a38.874 38.874 0 01-27.533 47.584l-137.486 36.7a38.874 38.874 0 01-47.584-27.533l-65.38-244.926-2.368.632z" stroke="#3f3d56" stroke-width="10.96"/><path d="M450.171 586.698l123.31-32.915a8.441 8.441 0 005.972-10.321l-1.083-4.055a8.441 8.441 0 00-10.32-5.972L444.74 566.35a8.441 8.441 0 00-5.972 10.321l1.082 4.055a8.441 8.441 0 0010.321 5.972zM459.502 621.652l123.31-32.915a8.441 8.441 0 005.971-10.321l-1.082-4.055a8.441 8.441 0 00-10.321-5.972l-123.31 32.915a8.441 8.441 0 00-5.972 10.321l1.083 4.055a8.441 8.441 0 0010.32 5.972z" fill="#cbd5e0"/><path d="M441.916 580.527l123.31-32.915a8.863 8.863 0 006.27-10.837l-1.082-4.055a8.863 8.863 0 00-10.837-6.27l-123.31 32.915a8.863 8.863 0 00-6.27 10.837l1.082 4.055a8.863 8.863 0 0010.837 6.27zm118.096-52.448a7.175 7.175 0 018.773 5.076l1.082 4.055a7.175 7.175 0 01-5.076 8.772l-123.31 32.916a7.175 7.175 0 01-8.772-5.076l-1.083-4.055a7.175 7.175 0 015.076-8.773zM451.247 615.481l123.31-32.915a8.863 8.863 0 006.27-10.837l-1.083-4.055a8.863 8.863 0 00-10.837-6.27l-123.31 32.915a8.863 8.863 0 00-6.27 10.837l1.083 4.055a8.863 8.863 0 0010.837 6.27zm118.095-52.448a7.175 7.175 0 018.773 5.076l1.082 4.055a7.175 7.175 0 01-5.076 8.772l-123.31 32.916a7.175 7.175 0 01-8.772-5.076l-1.082-4.055a7.175 7.175 0 015.076-8.773z" fill="#3f3d56"/><path fill="#cbd5e0" d="M323.308 265.796l-21.75 28.198 28.198 21.75 21.75-28.198z"/><path d="M505.707 654.472l58.542-15.627a8.441 8.441 0 005.972-10.321l-1.083-4.055a8.441 8.441 0 00-10.32-5.972l-58.543 15.627a8.441 8.441 0 00-5.971 10.32l1.082 4.056a8.441 8.441 0 0010.32 5.972z" fill="#f9a826"/><path d="M497.452 648.301l58.542-15.627a8.863 8.863 0 006.27-10.837l-1.082-4.055a8.863 8.863 0 00-10.837-6.27l-58.542 15.627a8.863 8.863 0 00-6.27 10.837l1.082 4.055a8.863 8.863 0 0010.837 6.27zm53.328-35.16a7.175 7.175 0 018.773 5.076l1.082 4.055a7.175 7.175 0 01-5.076 8.773l-58.542 15.627a7.175 7.175 0 01-8.773-5.076l-1.082-4.055a7.175 7.175 0 015.076-8.773z" fill="#3f3d56"/><rect width="124.059" height="24.427" x="-408.092" y="448.654" ry="12.073" rx="12.806" transform="scale(-1 1) rotate(14.946)" fill="#3f3d56"/></g></svg>
