<svg xmlns="http://www.w3.org/2000/svg" width="340" height="558" fill="none" opacity=".3"><path data-name="Path 133" d="M87.822 351.397l-2.382-4.066-1.238-10.137-1.043-12.916s-.225-8.86-.03-9.047c11.592-11.008 32.141-44.708 35.976-63.45-.264 1.562 3.46 62.791-31.283 99.616z" fill="#cbd5e0"/><path data-name="Path 134" d="M81.043 364.787c-.295.07 3.957-8.772 3.657-8.712.228-.08-.36-4.727-.054-4.832l11.997-6.962c15.95-6.554 31.822-13.96 35.236-18.703-.732 1.102-15.89 31.394-50.836 39.209z" fill="#cbd5e0"/><path d="M25.363 372.008c0 2.044-.077 4.062-.241 6.056h-52.13a35.165 35.165 0 01-35.168-35.168V295.21a77.539 77.539 0 0187.539 76.798z" fill="#f9a826"/><path d="M81.472 98.51v54.256a58.281 58.281 0 01-73.11-56.33q0-2.387.193-4.725h31.987a9.345 9.345 0 008.66-12.878h12.586A19.677 19.677 0 0181.472 98.51z" fill="#cbd5e0"/><path d="M86.618 149.318h-1.636V104.48A25.952 25.952 0 0059.03 78.527H-35.97A25.952 25.952 0 00-61.92 104.48v245.992a25.952 25.952 0 0025.951 25.952H59.03a25.952 25.952 0 0025.952-25.951V181.236h1.636z" stroke="#3f3d56" stroke-width="7.317"/><path d="M50.18 231.974h-85.202a5.635 5.635 0 01-5.629-5.629v-2.801a5.635 5.635 0 015.63-5.63H50.18a5.635 5.635 0 015.629 5.63v2.801a5.635 5.635 0 01-5.63 5.63zM50.18 256.126h-85.202a5.635 5.635 0 01-5.629-5.628v-2.802a5.635 5.635 0 015.63-5.63H50.18a5.635 5.635 0 015.629 5.63v2.802a5.635 5.635 0 01-5.63 5.628z" fill="#cbd5e0"/><path d="M54.443 226.573H-30.76a5.917 5.917 0 01-5.91-5.91v-2.802a5.917 5.917 0 015.91-5.91h85.203a5.917 5.917 0 015.91 5.91v2.801a5.917 5.917 0 01-5.91 5.91zm-85.203-13.497a4.79 4.79 0 00-4.784 4.785v2.801a4.79 4.79 0 004.784 4.785h85.203a4.79 4.79 0 004.784-4.785v-2.801a4.79 4.79 0 00-4.784-4.785zM54.443 250.725H-30.76a5.917 5.917 0 01-5.91-5.91v-2.802a5.917 5.917 0 015.91-5.91h85.203a5.917 5.917 0 015.91 5.91v2.801a5.917 5.917 0 01-5.91 5.91zm-85.203-13.497a4.79 4.79 0 00-4.784 4.785v2.801a4.79 4.79 0 004.784 4.785h85.203a4.79 4.79 0 004.784-4.785v-2.801a4.79 4.79 0 00-4.784-4.785z" fill="#3f3d56"/><path fill="#cbd5e0" d="M79.265 19.031L98.15 33.474 83.706 52.358 64.822 37.915z"/><path d="M26.029 285.25h-40.45a5.635 5.635 0 01-5.63-5.628v-2.802a5.635 5.635 0 015.63-5.629h40.45a5.635 5.635 0 015.629 5.629v2.802a5.635 5.635 0 01-5.63 5.629z" fill="#f9a826"/><path d="M30.291 279.85h-40.45a5.917 5.917 0 01-5.91-5.91v-2.803a5.917 5.917 0 015.91-5.91h40.45a5.917 5.917 0 015.91 5.91v2.802a5.917 5.917 0 01-5.91 5.91zm-40.45-13.497a4.79 4.79 0 00-4.785 4.784v2.802a4.79 4.79 0 004.784 4.785h40.451a4.79 4.79 0 004.785-4.785v-2.802a4.79 4.79 0 00-4.785-4.784z" fill="#3f3d56"/><rect width="82.821" height="16.307" x="-32.908" y="75.56" ry="8.06" rx="8.549" fill="#3f3d56"/></svg>
