<svg
   xmlns="http://www.w3.org/2000/svg"
   width="340"
   height="558"
   viewBox="0 0 340 558"
   style="fill:none;opacity:0.3;">
  <path
     style="fill:#cbd5e0;fill-opacity:1;stroke-width:0.56288952"
     id="b10fb2cf-c586-4c5f-9fbf-e678f5ffa3db"
     data-name="Path 133"
     d="m 87.821623,351.39684 -2.38114,-4.06627 -1.23862,-10.13627 -1.04275,-12.91593 c 0,0 -0.22479,-8.86039 -0.0299,-9.0476 11.5921,-11.00729 32.141237,-44.70796 35.976017,-63.4492 -0.26464,1.56137 3.46021,62.7907 -31.283577,99.61527 z"
      />
  <path
     style="fill:#cbd5e0;fill-opacity:1;stroke-width:0.56288952"
     id="a32c10c7-75df-4179-a648-6a8d2a687209"
     data-name="Path 134"
     d="m 81.042573,364.78701 c -0.29419,0.0702 3.9573,-8.77153 3.65714,-8.71168 v 0 c 0.2281,-0.0794 -0.35914,-4.72779 -0.0542,-4.83272 l 11.99782,-6.96198 c 15.949167,-6.55412 31.821887,-13.95958 35.235557,-18.70313 -0.73228,1.10217 -15.8894,31.39488 -50.836257,39.20951 z"
      />
  <path
     style="fill:#f9a826;stroke-width:1.00603938"
     d="m 25.362733,372.00767 c 0,2.04402 -0.07626,4.06273 -0.241157,6.05601 h -52.12973 a 35.165452,35.165452 0 0 1 -35.168118,-35.16785 v -47.68608 a 77.538865,77.538865 0 0 1 87.538975,76.79792 z"
     id="path18"
      />
  <path
     style="fill:#cbd5e0;fill-opacity:1;stroke-width:0.56288952"
     d="M 81.472203,98.509581 V 152.76634 A 58.28099,58.28099 0 0 1 8.3627368,96.43536 q 0,-2.386781 0.19181,-4.723864 H 40.541596 a 9.344675,9.344675 0 0 0 8.65949,-12.878702 h 12.587267 a 19.676698,19.676698 0 0 1 19.68385,19.676787 z"
     id="path16"
      />
  <path
     style="fill:none;stroke:#3f3d56;stroke-width:7.31676912;stroke-miterlimit:4;stroke-dasharray:none;stroke-opacity:1"
     d="m 86.618413,149.31844 h -1.63679 v -44.83939 a 25.951803,25.951803 0 0 0 -25.9518,-25.951834 h -94.99834 a 25.951803,25.951803 0 0 0 -25.951865,25.951754 v 245.99244 a 25.951803,25.951803 0 0 0 25.951804,25.95184 h 94.998291 a 25.951803,25.951803 0 0 0 25.95188,-25.95174 V 181.23588 h 1.63682 z"
     id="path4"
      />
  <path
     style="fill:#cbd5e0;fill-opacity:1;stroke-width:0.56288952"
     d="m 50.180846,231.97438 h -85.202735 a 5.6352558,5.6352558 0 0 1 -5.628895,-5.6289 v -2.8018 a 5.6352558,5.6352558 0 0 1 5.628895,-5.62889 h 85.202735 a 5.6352558,5.6352558 0 0 1 5.628887,5.62889 v 2.8018 a 5.6352558,5.6352558 0 0 1 -5.628887,5.6289 z"
     id="path8"
      />
  <path
     style="fill:#cbd5e0;fill-opacity:1;stroke-width:0.56288952"
     d="m 50.180846,256.12641 h -85.202735 a 5.6352558,5.6352558 0 0 1 -5.628895,-5.62889 v -2.80181 a 5.6352558,5.6352558 0 0 1 5.628895,-5.62889 h 85.202735 a 5.6352558,5.6352558 0 0 1 5.628887,5.62889 v 2.80181 a 5.6352558,5.6352558 0 0 1 -5.628887,5.62889 z"
     id="path10"
      />
  <path
     style="fill:#3f3d56;stroke-width:0.56288952"
     d="m 54.442913,226.57279 h -85.202726 a 5.9170947,5.9170947 0 0 1 -5.910341,-5.91035 v -2.8018 a 5.9170947,5.9170947 0 0 1 5.910341,-5.91034 h 85.202726 a 5.9170947,5.9170947 0 0 1 5.91035,5.91034 v 2.8018 a 5.9170947,5.9170947 0 0 1 -5.91035,5.91035 z m -85.202726,-13.49671 a 4.789914,4.789914 0 0 0 -4.784561,4.78456 v 2.8018 a 4.789914,4.789914 0 0 0 4.784561,4.78457 h 85.202726 a 4.789914,4.789914 0 0 0 4.78456,-4.78457 v -2.8018 a 4.789914,4.789914 0 0 0 -4.78456,-4.78456 z"
     id="path12"
      />
  <path
     style="fill:#3f3d56;stroke-width:0.56288952"
     d="m 54.442913,250.72481 h -85.202726 a 5.9170947,5.9170947 0 0 1 -5.910341,-5.91033 v -2.80181 a 5.9170947,5.9170947 0 0 1 5.910341,-5.91034 h 85.202726 a 5.9170947,5.9170947 0 0 1 5.91035,5.91034 v 2.80181 a 5.9170947,5.9170947 0 0 1 -5.91035,5.91033 z m -85.202726,-13.4967 a 4.789914,4.789914 0 0 0 -4.784561,4.78456 v 2.80181 a 4.789914,4.789914 0 0 0 4.784561,4.78456 h 85.202726 a 4.789914,4.789914 0 0 0 4.78456,-4.78456 v -2.80181 a 4.789914,4.789914 0 0 0 -4.78456,-4.78456 z"
     id="path14"
      />
  <rect
     style="fill:#cbd5e0;fill-opacity:1;stroke-width:0.56288952"
     x="74.522934"
     y="-33.038311"
     width="23.77449"
     height="23.77449"
     transform="rotate(37.40978)"
     id="rect46" />
  <path
     style="fill:#f9a826;stroke-width:0.56288952"
     d="m 26.028821,285.25072 h -40.450412 a 5.6352558,5.6352558 0 0 1 -5.628895,-5.62889 v -2.80181 a 5.6352558,5.6352558 0 0 1 5.628895,-5.6289 h 40.450412 a 5.6352558,5.6352558 0 0 1 5.628889,5.6289 v 2.80181 a 5.6352558,5.6352558 0 0 1 -5.628889,5.62889 z"
     id="path52"
      />
  <path
     style="fill:#3f3d56;stroke-width:0.56288952"
     d="m 30.291031,279.8494 h -40.450546 a 5.9170947,5.9170947 0 0 1 -5.91034,-5.91034 v -2.80181 a 5.9170947,5.9170947 0 0 1 5.91034,-5.91034 h 40.450546 a 5.9170947,5.9170947 0 0 1 5.910335,5.91034 v 2.80181 a 5.9170947,5.9170947 0 0 1 -5.910335,5.91034 z m -40.450546,-13.4967 a 4.789914,4.789914 0 0 0 -4.784561,4.78455 v 2.80181 a 4.789914,4.789914 0 0 0 4.784561,4.78456 h 40.450546 a 4.789914,4.789914 0 0 0 4.784555,-4.78456 v -2.80181 a 4.789914,4.789914 0 0 0 -4.784555,-4.78455 z"
     id="path54"
      />
  <rect
     style="fill:#3f3d56;fill-opacity:1;stroke:none;stroke-width:13.91444492;stroke-miterlimit:4;stroke-dasharray:none;stroke-opacity:1"
     id="rect903"
     width="82.820656"
     height="16.307396"
     x="-32.908054"
     y="75.559814"
     ry="8.0595398"
     rx="8.5493402" />
</svg>
