<svg
   xmlns="http://www.w3.org/2000/svg"
   width="340"
   height="558"
   viewBox="0 0 340 558"
   style="fill:none;opacity:0.3;">
  <g
     id="g908"
     transform="rotate(23.511584,176.64994,1298.2374)">
    <g
       id="g922"
       transform="matrix(0.66014475,-0.0994359,0.0994359,0.66014475,-503.27023,-45.417716)">
      <path
         d="M 373.67501,534.25166 C 295.52613,555.11218 214.97662,508.50443 194.1162,430.35588 173.25577,352.20733 219.86277,271.65767 298.01164,250.79716 376.16052,229.93665 456.70994,276.54405 477.57037,354.6926 498.4308,432.84115 451.82389,513.39115 373.67501,534.25166 Z M 298.37717,252.16651 C 220.98383,272.82534 174.82661,352.59669 195.48554,429.99036 216.14447,507.38403 295.91615,553.54115 373.30949,532.88232 450.70282,512.22348 496.85995,432.4518 476.20102,355.05812 455.5421,277.66446 375.7705,231.50767 298.37717,252.16651 Z"
         id="path34"
         style="fill:#cbd5e0;fill-opacity:1;stroke-width:0.70864475"
          />
      <path
         d="M 363.07484,494.54069 C 306.82276,509.55624 248.8427,476.0078 233.82717,419.75572 c -15.01545,-56.25176 18.53256,-114.23205 74.78464,-129.24759 56.25209,-15.01554 114.23214,18.53289 129.24759,74.78465 15.01553,56.25208 -18.53248,114.23238 -74.78456,129.24791 z M 308.97733,291.87747 c -55.49653,14.81386 -88.59477,72.01585 -73.78082,127.51272 14.81394,55.49687 72.01627,88.59502 127.5128,73.78116 C 418.20585,478.35749 451.304,421.15516 436.49005,365.6583 421.6761,310.16143 364.47388,277.06361 308.97733,291.87747 Z"
         id="path36"
         style="fill:#cbd5e0;fill-opacity:1;stroke-width:0.70864475"
          />
      <path
         d="m 352.35429,454.37874 a 64.020074,64.020074 0 1 1 45.34349,-78.36551 64.092916,64.092916 0 0 1 -45.34349,78.36551 z M 319.69788,332.03943 a 62.602785,62.602785 0 1 0 76.63055,44.33933 62.673706,62.673706 0 0 0 -76.63055,-44.33933 z"
         id="path38"
         style="fill:#cbd5e0;fill-opacity:1;stroke-width:0.70864475"
          />
      <circle
         style="fill:#f9a826;stroke-width:0.70864475"
         cx="223.24887"
         cy="465.8606"
         r="32.507938"
         id="circle40"
         transform="rotate(-14.945664)" />
      <circle
         style="fill:#f9a826;stroke-width:0.70864475"
         cx="246.50513"
         cy="321.03793"
         r="10.307394"
         id="circle42"
         transform="rotate(-14.945664)" />
      <circle
         style="fill:#f9a826;stroke-width:0.70864475"
         cx="117.26626"
         cy="566.0368"
         r="10.307394"
         id="circle44"
         transform="rotate(-14.945664)" />
      <circle
         cx="118.68356"
         cy="477.45618"
         r="10.307394"
         id="circle46"
         style="fill:#cbd5e0;fill-opacity:1;stroke-width:0.70864475"
         transform="rotate(-14.945664)" />
      <circle
         cx="311.43491"
         cy="408.00897"
         r="10.307394"
         id="circle48"
         style="fill:#cbd5e0;fill-opacity:1;stroke-width:0.70864475"
         transform="rotate(-14.945664)" />
      <circle
         cx="351.82767"
         cy="536.27368"
         r="10.307394"
         id="circle50"
         style="fill:#cbd5e0;fill-opacity:1;stroke-width:0.70864475"
         transform="rotate(-14.945664)" />
      <circle
         style="fill:#f9a826;stroke-width:0.70864475"
         cx="321.8284"
         cy="490.71347"
         r="10.307394"
         id="circle52"
         transform="rotate(-14.945664)" />
      <circle
         style="fill:#f9a826;stroke-width:0.70864475"
         cx="95.858604"
         cy="392.39682"
         r="10.307394"
         id="circle54"
         transform="rotate(-14.945664)" />
      <circle
         style="fill:#f9a826;stroke-width:0.70864475"
         cx="261.56976"
         cy="607.2663"
         r="10.307394"
         id="circle56-3"
         transform="rotate(-14.945664)" />
    </g>
  </g>
</svg>
