<svg
   xmlns="http://www.w3.org/2000/svg"
   width="340"
   height="558"
   viewBox="0 0 340 558"
   style="fill:none;opacity:0.3;">
  <g
     id="g908"
     transform="rotate(23.511584,176.64994,1298.2374)">
    <g
       id="g922"
       transform="matrix(0.66014475,-0.0994359,0.0994359,0.66014475,-503.27023,-45.417716)">
      <path
         style="opacity:1;fill:#cbd5e0;fill-opacity:1;stroke-width:0.84316444"
         id="b10fb2cf-c586-4c5f-9fbf-e678f5ffa3db"
         data-name="Path 133"
         d="m 441.83085,774.07322 1.87523,-6.80478 -2.12325,-15.1482 -3.48054,-19.09539 c 0,0 -3.0976,-12.91003 -3.45198,-13.10568 -21.02896,-11.45204 -63.78786,-52.28677 -76.57782,-77.92855 0.98618,2.15746 19.24941,92.21048 83.75832,132.08261 z"
          />
      <path
         style="opacity:1;fill:#cbd5e0;fill-opacity:1;stroke-width:0.84316444"
         id="a32c10c7-75df-4179-a648-6a8d2a687209"
         data-name="Path 134"
         d="m 456.81468,790.83324 c 0.45289,-0.0121 -9.1158,-11.1658 -8.65827,-11.19514 v 0 c -0.36079,-0.0268 -1.30666,-6.98102 -1.78853,-7.01508 l -20.05336,-5.44074 c -25.61439,-3.32398 -51.44701,-7.9096 -58.21997,-13.45593 1.48558,1.31222 35.12433,39.29782 88.72004,37.10692 z"
          />
      <path
         style="opacity:1;fill:#f9a826;stroke-width:1.50696826"
         d="m 540.18671,779.77319 c 0.78964,2.9582 1.67987,5.85031 2.68857,8.67138 l 75.44466,-20.13867 a 52.675094,52.675094 0 0 0 37.311,-64.4827 l -18.422,-69.0136 a 116.14715,116.14715 0 0 0 -97.02219,144.96358 z"
         id="path18"
          />
      <path
         style="opacity:1;fill:#cbd5e0;fill-opacity:1;stroke-width:0.84316444"
         d="m 353.32504,405.62967 20.96039,78.523 a 87.30036,87.30036 0 0 0 84.04585,-109.76845 q -0.92206,-3.45426 -2.10252,-6.7625 l -46.29319,12.35718 a 13.997592,13.997592 0 0 1 -17.5077,-15.29335 l -18.21692,4.86269 a 29.474153,29.474153 0 0 0 -20.88591,36.08143 z"
         id="path16"
          />
      <path
         style="opacity:1;fill:none;stroke:#3f3d56;stroke-width:10.95994759;stroke-miterlimit:4;stroke-dasharray:none;stroke-opacity:1"
         d="m 365.5056,481.15078 2.36883,-0.63232 -17.32227,-64.89373 a 38.873769,38.873769 0 0 1 27.53303,-47.58441 l 137.48617,-36.6996 a 38.873769,38.873769 0 0 1 47.58443,27.53295 l 95.0314,356.01213 a 38.873769,38.873769 0 0 1 -27.53303,47.58442 L 493.16805,799.1698 A 38.873769,38.873769 0 0 1 445.5836,771.63687 l -65.37883,-244.92597 -2.36888,0.63234 z"
         id="path4"
          />
      <path
         style="opacity:1;fill:#cbd5e0;fill-opacity:1;stroke-width:0.84316444"
         d="m 450.17131,586.69795 123.30951,-32.91538 a 8.441172,8.441172 0 0 0 5.97186,-10.32096 l -1.08239,-4.0549 a 8.441172,8.441172 0 0 0 -10.32096,-5.97186 l -123.3095,32.91538 a 8.441172,8.441172 0 0 0 -5.97185,10.32094 l 1.08238,4.0549 a 8.441172,8.441172 0 0 0 10.32095,5.97188 z"
         id="path8"
          />
      <path
         style="opacity:1;fill:#cbd5e0;fill-opacity:1;stroke-width:0.84316444"
         d="m 459.50168,621.65193 123.3095,-32.91538 a 8.441172,8.441172 0 0 0 5.97187,-10.32095 l -1.08238,-4.05491 a 8.441172,8.441172 0 0 0 -10.32096,-5.97186 l -123.3095,32.91538 a 8.441172,8.441172 0 0 0 -5.97186,10.32095 l 1.08239,4.05491 a 8.441172,8.441172 0 0 0 10.32094,5.97186 z"
         id="path10"
          />
      <path
         style="opacity:1;fill:#3f3d56;stroke-width:0.84316444"
         d="m 441.9163,580.52702 123.3095,-32.91538 a 8.8633446,8.8633446 0 0 0 6.27046,-10.83701 l -1.08239,-4.0549 a 8.8633446,8.8633446 0 0 0 -10.83701,-6.27046 l -123.30949,32.91538 a 8.8633446,8.8633446 0 0 0 -6.27047,10.837 l 1.08239,4.0549 a 8.8633446,8.8633446 0 0 0 10.83701,6.27047 z m 118.09547,-52.44846 a 7.1749162,7.1749162 0 0 1 8.77282,5.07608 l 1.08238,4.0549 a 7.1749162,7.1749162 0 0 1 -5.07608,8.77281 L 441.4814,578.89774 a 7.1749162,7.1749162 0 0 1 -8.77282,-5.0761 l -1.08239,-4.0549 a 7.1749162,7.1749162 0 0 1 5.07609,-8.77281 z"
         id="path12"
          />
      <path
         style="opacity:1;fill:#3f3d56;stroke-width:0.84316444"
         d="m 451.24667,615.48099 123.3095,-32.91538 a 8.8633446,8.8633446 0 0 0 6.27046,-10.83699 l -1.08239,-4.05491 a 8.8633446,8.8633446 0 0 0 -10.837,-6.27045 l -123.3095,32.91537 a 8.8633446,8.8633446 0 0 0 -6.27047,10.837 l 1.08239,4.05492 a 8.8633446,8.8633446 0 0 0 10.83701,6.27044 z m 118.09547,-52.44845 a 7.1749162,7.1749162 0 0 1 8.77282,5.07608 l 1.08239,4.05491 a 7.1749162,7.1749162 0 0 1 -5.07609,8.77282 l -123.30949,32.91537 a 7.1749162,7.1749162 0 0 1 -8.77281,-5.07609 l -1.08239,-4.05492 a 7.1749162,7.1749162 0 0 1 5.07608,-8.7728 z"
         id="path14"
          />
      <rect
         style="opacity:1;fill:#cbd5e0;fill-opacity:1;stroke-width:0.84316444"
         x="12.997473"
         y="418.33829"
         width="35.612324"
         height="35.612324"
         transform="matrix(-0.6107611,0.79181493,0.79181493,0.6107611,0,0)"
         id="rect46" />
      <path
         style="opacity:1;fill:#f9a826;stroke-width:0.84316444"
         d="m 505.70692,654.47167 58.54178,-15.62675 a 8.441172,8.441172 0 0 0 5.97187,-10.32094 l -1.0824,-4.05492 a 8.441172,8.441172 0 0 0 -10.32095,-5.97187 l -58.54179,15.62675 a 8.441172,8.441172 0 0 0 -5.97185,10.32095 l 1.08239,4.05491 a 8.441172,8.441172 0 0 0 10.32095,5.97187 z"
         id="path52"
          />
      <path
         style="opacity:1;fill:#3f3d56;stroke-width:0.84316444"
         d="m 497.45181,648.30119 58.54197,-15.6268 a 8.8633446,8.8633446 0 0 0 6.27047,-10.837 l -1.08239,-4.05492 a 8.8633446,8.8633446 0 0 0 -10.83701,-6.27045 l -58.54198,15.62679 a 8.8633446,8.8633446 0 0 0 -6.27044,10.83699 l 1.08239,4.05492 a 8.8633446,8.8633446 0 0 0 10.83699,6.27047 z m 53.32796,-35.15987 a 7.1749162,7.1749162 0 0 1 8.7728,5.07607 l 1.08239,4.05491 a 7.1749162,7.1749162 0 0 1 -5.07608,8.77281 L 497.0169,646.6719 a 7.1749162,7.1749162 0 0 1 -8.7728,-5.07608 l -1.08239,-4.05492 a 7.1749162,7.1749162 0 0 1 5.07607,-8.77279 z"
         id="path54"
          />
      <rect
         style="opacity:1;fill:#3f3d56;fill-opacity:1;stroke:none;stroke-width:20.84274864;stroke-miterlimit:4;stroke-dasharray:none;stroke-opacity:1"
         id="rect903"
         width="124.05886"
         height="24.427202"
         x="-408.09195"
         y="448.65417"
         ry="12.072559"
         rx="12.806242"
         transform="matrix(-0.96617084,0.25790291,0.25790291,0.96617084,0,0)" />
    </g>
  </g>
</svg>
