<svg xmlns="http://www.w3.org/2000/svg" width="340" height="558" fill="none" opacity=".3"><g transform="rotate(23.512 176.65 1298.237)"><path d="M17.424 281.621l-186.689 81.22a4.611 5.248 66.488 01-6.644-2.133l-44.003-101.145a3.378 3.845 66.488 012.175-4.626l189.199-82.312a3.437 3.911 66.488 014.951 1.59l43.98 101.092a4.611 5.248 66.488 01-2.969 6.314z" stroke="#f2f2f2" stroke-width="5.304"/><path d="M-16.375 172.86l-205.31 89.32-1.382-3.176a6.833 5.507 66.488 012.324-8.452l195.219-84.93a6.833 5.507 66.488 017.768 4.061z" fill="#3f3d56"/><ellipse cx="-297.119" cy="146.602" transform="rotate(-23.512)" rx="2.86" ry="2.652" fill="#fff"/><ellipse cx="-286.262" cy="146.602" transform="rotate(-23.512)" rx="2.86" ry="2.652" fill="#fff"/><ellipse cx="-275.404" cy="146.602" transform="rotate(-23.512)" rx="2.86" ry="2.652" fill="#fff"/><path d="M-144.704 254.389l-46.704 20.318a2.655 2.863 66.488 01-2.118-4.868l46.704-20.319a2.655 2.863 66.488 112.118 4.869zM-86.67 229.14l-46.704 20.32a2.655 2.863 66.488 01-2.118-4.87l46.703-20.318a2.655 2.863 66.488 112.119 4.869zM-82.657 238.366l-81.248 35.347a2.655 2.863 66.488 11-2.118-4.869l81.248-35.347a2.655 2.863 66.488 112.118 4.869zM-148.773 245.036l-46.704 20.318a2.655 2.863 66.488 01-2.118-4.868l46.704-20.319a2.655 2.863 66.488 112.118 4.869zM-123.017 233.983l-13.265 5.77a2.655 2.863 66.488 01-2.118-4.868l13.265-5.77a2.655 2.863 66.488 112.118 4.868zM-174.13 278.161l-13.265 5.771a2.655 2.863 66.488 01-2.118-4.869l13.265-5.77a2.655 2.863 66.488 112.118 4.868zM-115.431 324.416l-46.704 20.319a2.655 2.863 66.488 01-2.118-4.87l46.704-20.318a2.655 2.863 66.488 112.118 4.87zM-90.343 313.654l-13.265 5.77a2.655 2.863 66.488 01-2.118-4.868l13.265-5.77a2.655 2.863 66.488 012.118 4.868z" fill="#ccc"/><path d="M-136.53 314.743a3.8 4.097 66.488 01-3.086.148l-24.55-8.437a3.7 3.99 66.488 01-2.1-4.829l10.52-23.617a3.922 4.23 66.488 015.462-2.357 3.917 4.225 66.488 012.208 5.074l-7.752 17.7a2.189 2.36 66.488 001.233 2.835l18.136 6.36a3.808 4.107 66.488 01-.071 7.123zM-119.152 306.999a3.808 4.107 66.488 01-5.26-4.804l7.71-17.604a2.189 2.36 66.488 00-1.233-2.835l-18.235-6.395a3.913 4.22 66.488 01-2.207-5.074 3.922 4.23 66.488 015.448-2.39l24.45 8.404a3.7 3.99 66.488 012.1 4.828l-10.562 23.713a3.8 4.098 66.488 01-2.21 2.157z" fill="#f9a826"/></g><path fill="#f9a826" d="M298.457 350.915l18.789 4.963-4.792 18.138-18.788-4.963z"/><path d="M290.483 365.957l5.19-19.65 20.335 5.372-5.19 19.65zm5.6-18.945l-4.896 18.535 19.22 5.077 4.897-18.535z" fill="#3f3d56"/><g transform="matrix(.5858 0 0 .5858 132.211 -686.064)"><path d="M321.507 1370.71a17.478 17.478 0 1117.478-17.478 17.498 17.498 0 01-17.478 17.478zm0-34.012a16.533 16.533 0 1016.533 16.534 16.552 16.552 0 00-16.533-16.534z" fill="#3f3d56"/><circle r="14.172" cy="1347.404" cx="313.057" fill="#f9a826"/></g><path d="M315.16 455.594l-3.286-12.363 12.794-3.401 3.286 12.363zm-2.843-12.106l3.1 11.662 12.093-3.214-3.1-11.662z" fill="#3f3d56"/></svg>
