<svg xmlns="http://www.w3.org/2000/svg" width="340" height="558" fill="none" opacity=".3"><g transform="rotate(23.512 176.65 1298.237)"><g transform="matrix(.68454 -.10311 .10311 .68454 -454.402 -1.424)"><path d="M500.529 535.036H268.867a20.734 20.734 74.043 01-20.71-20.71V178.364a20.734 20.734 74.043 0120.71-20.71h231.662a20.734 20.734 74.043 0120.71 20.71v335.962a20.734 20.734 74.043 01-20.71 20.71z" stroke="#cbd5e0" stroke-width="9.179"/><circle cx="383.777" cy="155.636" r="1.843" fill="#fff"/><path fill="#cbd5e0" d="M329.86 349.92h160.605v5.968H329.86zM329.86 368.818h160.605v5.968H329.86zM329.86 387.716h160.605v5.968H329.86zM278.931 353.608h36.387v36.387h-36.387zM329.86 429.123h160.605v5.968H329.86zM329.86 448.02h160.605v5.968H329.86zM329.86 466.918h160.605v5.968H329.86zM278.931 432.811h36.387v36.387h-36.387z"/><path fill="#f9a826" d="M349.454 237.581l62.914-24.332 23.49 60.735-62.914 24.332z"/><path d="M357.692 296.1l-25.447-65.796 68.09-26.335 25.447 65.797zm-22.86-64.653l24.004 62.066 64.359-24.89-24.004-62.067z" fill="#3f3d56"/></g><path d="M-97.194 366.71a11.377 11.377 0 115.894-14.972 11.39 11.39 0 01-5.894 14.971zm-8.832-20.302a10.762 10.762 0 1014.162 5.576 10.774 10.774 0 00-14.162-5.576z" fill="#3f3d56"/><circle cx="-231.171" cy="284.487" r="9.225" transform="rotate(-23.512)" fill="#f9a826"/></g><path d="M318.308 538.566a14.14 14.14 0 1114.14-14.14 14.157 14.157 0 01-14.14 14.14zm0-27.894a13.753 13.753 0 1013.753 13.753 13.769 13.769 0 00-13.753-13.753z" fill="#3f3d56"/><circle cx="310.56" cy="522.101" r="11.622" fill="#cbd5e0"/><path fill="#f9a826" d="M272.638 415.38l16.66 9.669-9.334 16.084-16.66-9.67z"/><path d="M261.072 427.67l10.112-17.425 18.032 10.465-10.113 17.424zm10.32-16.644l-9.54 16.436 17.044 9.892 9.54-16.437z" fill="#3f3d56"/></svg>
