<svg
   xmlns="http://www.w3.org/2000/svg"
   width="340"
   height="558"
   viewBox="0 0 340 558"
   style="fill:none;opacity:0.3;">
  <g
     id="g908"
     transform="rotate(23.511584,176.64994,1298.2374)">
    <g
       id="g922"
       transform="matrix(0.66014475,-0.0994359,0.0994359,0.66014475,-503.27023,-45.417716)">
      <path
         d="M 373.67501,534.25166 C 295.52613,555.11218 214.97662,508.50443 194.1162,430.35588 173.25577,352.20733 219.86277,271.65767 298.01164,250.79716 376.16052,229.93665 456.70994,276.54405 477.57037,354.6926 498.4308,432.84115 451.82389,513.39115 373.67501,534.25166 Z M 298.37717,252.16651 C 220.98383,272.82534 174.82661,352.59669 195.48554,429.99036 216.14447,507.38403 295.91615,553.54115 373.30949,532.88232 450.70282,512.22348 496.85995,432.4518 476.20102,355.05812 455.5421,277.66446 375.7705,231.50767 298.37717,252.16651 Z"
         id="path34"
         style="fill:#cbd5e0;fill-opacity:1;stroke-width:0.70864475" />
      <path
         d="M 363.07484,494.54069 C 306.82276,509.55624 248.8427,476.0078 233.82717,419.75572 c -15.01545,-56.25176 18.53256,-114.23205 74.78464,-129.24759 56.25209,-15.01554 114.23214,18.53289 129.24759,74.78465 15.01553,56.25208 -18.53248,114.23238 -74.78456,129.24791 z M 308.97733,291.87747 c -55.49653,14.81386 -88.59477,72.01585 -73.78082,127.51272 14.81394,55.49687 72.01627,88.59502 127.5128,73.78116 C 418.20585,478.35749 451.304,421.15516 436.49005,365.6583 421.6761,310.16143 364.47388,277.06361 308.97733,291.87747 Z"
         id="path36"
         style="fill:#cbd5e0;fill-opacity:1;stroke-width:0.70864475" />
      <path
         d="m 352.35429,454.37874 a 64.020074,64.020074 0 1 1 45.34349,-78.36551 64.092916,64.092916 0 0 1 -45.34349,78.36551 z M 319.69788,332.03943 a 62.602785,62.602785 0 1 0 76.63055,44.33933 62.673706,62.673706 0 0 0 -76.63055,-44.33933 z"
         id="path38"
         style="fill:#cbd5e0;fill-opacity:1;stroke-width:0.70864475" />
      <circle
         style="fill:#f9a826;stroke-width:0.70864475"
         cx="223.24887"
         cy="465.8606"
         r="32.507938"
         id="circle40"
         transform="rotate(-14.945664)" />
      <circle
         style="fill:#f9a826;stroke-width:0.70864475"
         cx="246.50513"
         cy="321.03793"
         r="10.307394"
         id="circle42"
         transform="rotate(-14.945664)" />
      <circle
         style="fill:#f9a826;stroke-width:0.70864475"
         cx="117.26626"
         cy="566.0368"
         r="10.307394"
         id="circle44"
         transform="rotate(-14.945664)" />
      <circle
         cx="118.68356"
         cy="477.45618"
         r="10.307394"
         id="circle46"
         style="fill:#cbd5e0;fill-opacity:1;stroke-width:0.70864475"
         transform="rotate(-14.945664)" />
      <circle
         cx="311.43491"
         cy="408.00897"
         r="10.307394"
         id="circle48"
         style="fill:#cbd5e0;fill-opacity:1;stroke-width:0.70864475"
         transform="rotate(-14.945664)" />
      <circle
         cx="351.82767"
         cy="536.27368"
         r="10.307394"
         id="circle50"
         style="fill:#cbd5e0;fill-opacity:1;stroke-width:0.70864475"
         transform="rotate(-14.945664)" />
      <circle
         style="fill:#f9a826;stroke-width:0.70864475"
         cx="321.8284"
         cy="490.71347"
         r="10.307394"
         id="circle52"
         transform="rotate(-14.945664)" />
      <circle
         style="fill:#f9a826;stroke-width:0.70864475"
         cx="95.858604"
         cy="392.39682"
         r="10.307394"
         id="circle54"
         transform="rotate(-14.945664)" />
      <circle
         style="fill:#f9a826;stroke-width:0.70864475"
         cx="261.56976"
         cy="607.2663"
         r="10.307394"
         id="circle56-3"
         transform="rotate(-14.945664)" />
    </g>
  </g>
  <g
     style="fill:none"
     id="g4752"
     transform="matrix(0.34856792,0.12463038,-0.12463038,0.34856792,127.85022,223.81771)">
    <path
       style="fill:#f9a826;fill-opacity:1;fill-rule:nonzero;stroke:none;stroke-width:0.4626964"
       d="m 448.11476,267.05948 c -1.14748,0 -2.25794,-0.44418 -3.07228,-1.25852 L 424.721,245.73859 c -1.66569,-1.62868 -1.66569,-4.36782 0,-5.9965 l 20.24745,-19.98834 c 1.73973,-1.73972 4.5529,-1.73972 6.29263,0 v 0 c 1.73972,1.77674 1.73972,4.58992 0,6.32964 l -15.02827,15.06529 c -0.96241,0.9624 -0.96241,2.55406 0,3.51646 l 14.95423,14.95424 c 2.73914,2.73914 0.81434,7.4401 -3.07228,7.4401 z"
       id="path4737"
        />
    <path
       style="fill:#f9a826;fill-opacity:1;fill-rule:nonzero;stroke:none;stroke-width:0.4626964"
       d="m 480.46626,267.05948 c -3.88663,0 -5.81143,-4.70096 -3.07229,-7.4401 l 14.95424,-14.95424 c 0.9624,-0.9624 0.9624,-2.55406 0,-3.51646 l -15.02827,-15.06529 c -1.77674,-1.73972 -1.77674,-4.5529 0,-6.32964 v 0 c 1.73973,-1.73972 4.5529,-1.73972 6.29263,0 l 20.24744,19.98834 c 1.6657,1.62868 1.6657,4.36782 0,5.9965 l -20.32147,20.06237 c -0.81434,0.81434 -1.92481,1.25852 -3.07228,1.25852 z"
       id="path4739"
        />
  </g>
  <path
     style="fill:#3f3d56;stroke-width:0.17103629"
     d="m 304.40096,424.0429 a 12.485648,12.485648 0 1 1 12.4856,-12.4856 12.499819,12.499819 0 0 1 -12.4856,12.4856 z m 0,-24.6292 a 12.143576,12.143576 0 1 0 12.1435,12.1436 12.157355,12.157355 0 0 0 -12.1435,-12.1436 z"
     id="path12-2-6"
      />
  <circle
     style="fill:#cbd5e0;stroke-width:0.17103629"
     cx="309.31668"
     cy="406.29825"
     r="10.262177"
     id="circle50-1-2" />
  <path
     style="fill:#3f3d56;stroke-width:0.13950913"
     d="m 312.05708,254.37333 -19.61679,-6.04696 6.2489,-20.27188 19.61679,6.04697 z m -19.27094,-6.23716 19.0922,5.88526 6.08179,-19.72978 -19.0922,-5.88526 z"
     id="path12"
      />
  <g
     style="fill:none"
     id="g4732"
     transform="matrix(0.60567654,0,0,0.60567654,-210.72488,-91.502578)">
    <rect
       id="rect28"
       transform="rotate(-21.14419)"
       height="29.641722"
       width="30.704903"
       y="818.67242"
       x="572.82794"
       style="fill:#f9a826;stroke-width:0.45519352" />
    <path
       id="path30-1"
       d="m 833.32072,583.56495 -11.58337,-29.95009 30.99412,-11.98728 11.58331,29.95009 z m -10.40594,-29.42955 10.92665,28.252 29.2958,-11.33027 -10.92653,-28.252 z"
       style="fill:#3f3d56;stroke-width:0.45519352"
        />
  </g>
</svg>
