<svg fill="currentColor" viewBox="0 0 145 30" xmlns="http://www.w3.org/2000/svg"><path d="M60.38 11.199h-4.638l-4.793 5.56V4H47v21.72h3.949v-5.802l5.178 5.802h5.008l-6.837-7.354L60.38 11.2zM64.682 4.482c-.589 0-1.107.21-1.557.63-.449.42-.674.93-.674 1.531 0 .57.222 1.076.666 1.516.444.441.966.661 1.565.661.62 0 1.148-.22 1.581-.66.434-.441.65-.947.65-1.517 0-.59-.22-1.098-.658-1.524a2.182 2.182 0 00-1.573-.637zM62.708 25.72h3.948V11.199h-3.948v14.52zM79.304 10.919c-.866 0-1.664.314-2.391.94-.728.628-1.45 1.64-2.167 3.04h-.064v-3.7h-3.948v14.52h3.948v-6.622c0-.726.179-1.451.537-2.177.359-.725.835-1.308 1.429-1.749.594-.44 1.196-.66 1.806-.66.695 0 1.616.414 2.76 1.243l1.413-3.342c-.674-.54-1.266-.923-1.774-1.151a3.758 3.758 0 00-1.549-.342zM83.75 20.34h8.314v-3.669H83.75v3.67zM106.077 22.797h-2.071c-3.199 0-4.799-1.56-4.799-4.68 0-1.296.394-2.342 1.179-3.14.787-.798 1.838-1.198 3.155-1.198.877 0 1.722.203 2.536.607v8.41zm0-11.272c-1.188-.404-2.307-.606-3.355-.606a7.816 7.816 0 00-3.796.956 7.104 7.104 0 00-2.76 2.635c-.67 1.12-1.004 2.364-1.004 3.731 0 2.312.72 4.136 2.16 5.473 1.438 1.337 3.356 2.006 5.753 2.006h6.934V4h-3.932v7.525zM117.28 16.904c.16-1.108.543-1.948 1.147-2.518.605-.57 1.405-.855 2.4-.855.974 0 1.739.298 2.295.894.556.596.888 1.422.996 2.48h-6.838zm3.387-5.985c-2.226 0-4.032.7-5.417 2.099-1.386 1.4-2.079 3.202-2.079 5.41 0 2.29.749 4.125 2.247 5.504 1.498 1.378 3.429 2.068 5.794 2.068 2.504 0 4.633-.601 6.389-1.804v-2.845c-.931.643-1.833 1.122-2.705 1.438a7.92 7.92 0 01-2.721.474c-1.466 0-2.619-.35-3.458-1.049-.841-.7-1.341-1.697-1.501-2.993h10.609v-.575c0-2.415-.642-4.307-1.926-5.675-1.284-1.368-3.029-2.052-5.232-2.052zM140.361 11.199l-3.515 8.41-3.596-8.41h-4.237l6.869 14.8h1.911l6.773-14.8h-4.205z"/><g><path d="M21.061 2.53c1.224 0 2.451-.027 3.674.005.465.012.929.049 1.39.11l-.34-.046c.921.124 1.827.351 2.685.708l-.305-.128c.67.278 1.302.64 1.88 1.076l-.258-.198c.496.378.941.818 1.325 1.308l-.2-.256c.351.45.643.944.867 1.467l-.128-.302c.218.511.366 1.048.443 1.597a271.38 271.38 0 00-.047-.336 6.04 6.04 0 010 1.61l.047-.337a5.971 5.971 0 01-.415 1.508l.128-.303a6.174 6.174 0 01-.802 1.361l.2-.256c-.353.45-.762.853-1.217 1.2l.258-.197a8.119 8.119 0 01-1.793 1.026l.305-.127c-.874.363-1.799.59-2.737.716l.34-.047c-.761.1-1.524.121-2.29.121h-3.01c-.696 0-1.276.576-1.276 1.265 0 .69.58 1.265 1.276 1.265 1.184 0 2.369.01 3.552 0 2.1-.018 4.252-.43 6.086-1.48 1.409-.805 2.648-2.04 3.296-3.533.173-.398.332-.794.438-1.215a8 8 0 00.201-1.277c.064-.75-.02-1.523-.196-2.253-.368-1.533-1.274-2.96-2.46-4C30.552 1.335 28.767.547 26.9.226A15.697 15.697 0 0024.225 0h-3.164c-.695 0-1.276.576-1.276 1.265 0 .69.58 1.265 1.276 1.265zM13.36 13.841c-2.478.008-4.899.74-6.96 2.106a14.05 14.05 0 00-4.815 5.5A15.425 15.425 0 00.019 28.2c0 .69.582 1.265 1.277 1.265s1.276-.575 1.276-1.265c0-.65.045-1.298.132-1.942l-.046.336c.168-1.225.499-2.423.983-3.563l-.129.302a13.414 13.414 0 011.736-2.95l-.2.257a12.687 12.687 0 012.273-2.257l-.259.198a11.89 11.89 0 012.597-1.507l-.305.127a11.386 11.386 0 012.86-.776l-.34.047c.493-.065.99-.098 1.487-.098.695 0 1.276-.575 1.276-1.265s-.58-1.267-1.277-1.266zM15.918 1.265V28.2c0 .69.581 1.265 1.277 1.265.695 0 1.276-.576 1.276-1.265V1.265c0-.69-.58-1.265-1.276-1.265-.696 0-1.277.575-1.277 1.265z"/></g><g fill="#F15A29"><path d="M.016 1.266A16.69 16.69 0 001.881 8.94a14.362 14.362 0 004.889 5.406 12.234 12.234 0 006.588 1.955c.696 0 1.277-.578 1.277-1.265 0-.688-.581-1.264-1.277-1.265-.472 0-.944-.032-1.413-.093l.34.046a10.92 10.92 0 01-2.732-.739l.305.128a11.667 11.667 0 01-2.584-1.503l.259.198A12.898 12.898 0 015.25 9.536l.199.256A14.191 14.191 0 013.601 6.64l.129.302A15.243 15.243 0 012.669 3.07l.043.334a16.126 16.126 0 01-.144-2.138C2.568.576 1.99 0 1.293 0 .595 0 .016.575.016 1.265zM34.944 28.2a14.833 14.833 0 00-1.968-7.37 14.26 14.26 0 00-5.158-5.176 13.583 13.583 0 00-6.758-1.816c-.696 0-1.276.577-1.276 1.266 0 .688.58 1.264 1.276 1.265a12.5 12.5 0 011.628.108l-.34-.046c1.062.144 2.1.427 3.087.84l-.304-.127c.981.414 1.905.95 2.75 1.597l-.259-.198a13.06 13.06 0 012.333 2.315l-.2-.256a13.339 13.339 0 011.743 2.962l-.129-.302c.466 1.102.784 2.26.945 3.445l-.047-.337c.081.607.122 1.218.123 1.83 0 .69.58 1.265 1.276 1.265.697 0 1.278-.575 1.277-1.265h.001z"/></g></svg>
