<svg xmlns="http://www.w3.org/2000/svg" viewBox="0 -25 200 200"><g fill="#c00" fill-rule="evenodd"><path d="M165.92 121.634s15.419-1.322 15.419-21.233S162.66 78.64 162.66 78.64h-33.655v62.817h16.916v-15.154l14.625 15.154c30.463 1.594 24.346-.681 5.374-19.823zm-6.519-12.863h-13.48V94.41h13.568s3.789 1.41 3.789 7.136c0 5.727-3.877 7.225-3.877 7.225z"/><path d="M20.42 137.03h60.691s-13.367-64.24 30.896-90.253c9.65-4.942 38.882-20.62 74.637 7.585 1.593-1.398 3.098-2.517 3.098-2.517s-30.02-40.218-81.276-34.81c-25.761 2.424-48.209 27.131-66.8 59.764-18.59 32.633-21.245 60.232-21.245 60.232z" fill="none" stroke="#c00" stroke-width="14" stroke-linejoin="round"/><path d="M164.446 18.142l.4-6.7c-.9-.5-3.4-1.7-9.7-3.5l-.4 6.6c3.3 1.1 6.5 2.3 9.7 3.6zM161.544 52.706l-.4 6.3c3.3.1 6.6.5 9.9 1.2l.4-6.2c-3.4-.7-6.7-1.1-9.9-1.3zM112.293 7.1h1l-2-6.1c-3.1 0-6.3.2-9.6.6l1.9 5.9c2.9-.3 5.8-.4 8.7-.4zm19.161 46.196l2.3 6.9c2.9-1.4 5.8-2.6 8.7-3.5l-2.2-6.6c-3.4 1-6.3 2.1-8.8 3.2zM70.137 25.523l-4.5-6.9c-2.5 1.3-5.1 2.7-7.8 4.3l4.6 7c2.6-1.6 5.1-3.1 7.7-4.4zm35.098 40.935l4.8 7.2c1.7-2.5 3.7-4.8 5.9-7.1l-4.5-6.8c-2.3 2.1-4.4 4.4-6.2 6.7zm-14.5 32.2l8.1 6.4c.4-3.9 1.1-7.8 2.1-11.7l-7.2-5.7c-1.3 3.7-2.2 7.4-3 11zM38.46 57.769l-7.1-6.2c-2.6 2.5-5.1 5-7.4 7.5l7.7 6.6c2.1-2.7 4.4-5.4 6.8-7.9zM17.5 101.286L6 97.086c-1.9 4.3-4 9.3-5 12l11.5 4.2c1.3-3.4 3.4-8.3 5-12zm71.735 22.772c.2 5.3.7 9.6 1.2 12.6l12 4.3c-.9-3.9-1.8-8.3-2.4-13z"/></g></svg>
