<svg xmlns="http://www.w3.org/2000/svg" id="prefix__Layer_1" data-name="Layer 1" width="230" height="230"><defs id="prefix__defs4"><style id="style2">.prefix__cls-2{fill:#63bc47}</style></defs><g id="prefix__g882" transform="matrix(1.46496 0 0 1.46496 -78.632 -53.228)"><path id="prefix__path60" d="M132.22 47.37a67.53 67.53 0 11-67.53 67.53 67.52 67.52 0 0167.53-67.53m0-8.1a75.64 75.64 0 1075.64 75.63 75.72 75.72 0 00-75.64-75.63z" class="prefix__cls-2" fill="#63bc47"/><path id="prefix__path62" d="M197.87 97H123a3.9 3.9 0 110-7.79h74.83a3.9 3.9 0 010 7.79zm-87.56-12.41a8.54 8.54 0 108.54 8.53 8.53 8.53 0 00-8.54-8.53m0-8.11a16.64 16.64 0 11-16.64 16.64 16.66 16.66 0 0116.64-16.64z" class="prefix__cls-2" fill="#63bc47"/><path id="prefix__path64" d="M139.39 142.07H69a3.45 3.45 0 010-6.9h70.43a3.45 3.45 0 010 6.9z" class="prefix__cls-2" fill="#63bc47"/><path id="prefix__path66" d="M152 129.75a8.54 8.54 0 11-8.53 8.54 8.54 8.54 0 018.53-8.54m0-8.1a16.64 16.64 0 1016.64 16.64A16.66 16.66 0 00152 121.65z" class="prefix__cls-2" fill="#63bc47"/></g></svg>
