<svg xmlns="http://www.w3.org/2000/svg" viewBox="0 0 2447.6 2452.5"><g fill="#7289da"><path d="M1802.569 1469.693c-42.655-8.84-83.929 20.848-93.39 66.496-9.46 45.647 17.362 89.45 59.268 98.135 42.654 8.84 83.929-20.848 93.39-66.496 9.46-45.647-17.363-89.45-59.268-98.135zm-273.137-56.61c-42.654-8.84-83.929 20.848-93.39 66.495-9.46 45.648 17.363 89.45 59.268 98.135 42.655 8.84 83.929-20.848 93.39-66.495 10.209-45.492-16.614-89.295-59.268-98.135z"/><path d="M2295.293 922.469l-1002.749-207.83c-84.56-17.527-167.674 37.05-185.2 121.61l-207.83 1002.748c-17.526 84.56 37.05 167.675 121.61 185.2l848.595 175.881-11.278-145.163 77.483 108.154 73.331 101.83 132.634 173.437 275.763-1330.512c16.777-84.715-37.8-167.83-122.36-185.355zm-489.702 909.206s-20.27-37.761-36.982-70.102c103.769-7.37 153.748-60.23 153.748-60.23-34.87 13.847-67 22.016-95.208 26.316-40.673 7.96-78.609 10.243-115.175 9.688-74.63-1.42-139.708-18.81-193.66-40.918-40.948-17.072-75.29-35.897-103.334-54.977-15.815-10.302-32.817-22.411-49.354-36.765-1.935-1.962-4.025-3.176-5.96-5.138-1.341-1.058-1.934-1.962-2.683-2.117-11.918-10.275-18.316-17.064-18.316-17.064s23.667 66.562 112.81 114.696c-28.344 23.783-62.856 50.97-62.856 50.97-164.293-39.514-204.817-160.3-204.817-160.3 49.476-238.715 197.404-410.195 197.404-410.195 124.353-57.737 225.66-34.398 225.66-34.398l5.621 10.53c-142.607 10.247-216.222 56.646-216.222 56.646s18.324-5.567 48.494-11.802c87.36-18.575 152.828-14.372 179.64-11.937 4.644.182 8.54.21 13.03 1.14 46.89 3.475 98.833 12.68 151.472 29.833 69.384 22.966 141.37 59.739 210.51 117.775 0 0-47.485-68.377-166.79-132.908l12.958-9.801s102.985 19.003 193.4 121.252c0 0 67.588 216.149 18.112 454.863.155-.749-85.038 93.981-251.502 64.943z"/></g><g clip-rule="evenodd" fill-rule="evenodd"><path d="M471.38 106.283c-81.506 15.81-134.698 94.71-118.888 176.216 15.69 81.53 94.504 134.926 176.034 119.236l147.49-28.495-28.53-147.672c-15.69-81.53-94.504-134.926-176.106-119.285.06-.012.06-.012 0 0m76.13 394.033L154.32 576.28C72.814 592.091 19.56 671.003 35.37 752.51c15.63 81.541 94.444 134.938 175.985 119.309l393.25-75.978c81.506-15.81 134.758-94.722 118.948-176.228-15.7-81.59-94.515-134.986-176.045-119.296z" fill="#36c5f0"/><path d="M1510.042 467.597c-15.69-81.53-94.504-134.926-176.034-119.236-81.506 15.81-134.758 94.722-118.949 176.228l28.555 147.792 147.49-28.496c81.507-15.81 134.76-94.722 118.938-176.288zm-393.25 75.977l-76.129-394.032c-15.677-81.47-94.432-134.877-175.973-119.248-81.506 15.81-134.758 94.722-118.949 176.228l76.13 394.033c15.628 81.54 94.443 134.937 175.984 119.308 81.506-15.81 134.759-94.722 118.937-176.289z" fill="#2eb67d"/><path d="M1150.113 1507.928c81.506-15.81 134.758-94.722 118.948-176.228-15.689-81.53-94.504-134.925-176.033-119.236l-147.491 28.496 28.542 147.732c15.678 81.47 94.493 134.865 176.034 119.236zm-76.14-394.093l393.249-75.977c81.506-15.81 134.758-94.722 118.949-176.228-15.63-81.541-94.444-134.938-175.986-119.308l-393.249 75.977c-81.506 15.81-134.759 94.722-118.949 176.228 15.701 81.59 94.456 134.998 175.985 119.308z" fill="#ecb22e"/><path d="M111.5 1146.542c15.69 81.53 94.504 134.926 176.033 119.236 81.507-15.81 134.759-94.722 118.95-176.228L377.94 941.818l-147.491 28.496c-81.507 15.81-134.759 94.722-118.95 176.228zm393.25-75.977l76.128 394.032c15.63 81.542 94.444 134.938 175.985 119.309 81.506-15.81 134.759-94.722 118.949-176.228l-76.117-393.973c-15.63-81.541-94.444-134.937-175.985-119.308-81.578 15.761-134.77 94.662-118.96 176.168 0 0 .011.06 0 0" fill="#e01e5a"/></g></svg>
