<svg fill="#8cc84b" viewBox="0 0 65 33.5" xmlns="http://www.w3.org/2000/svg"><path d="M52.655 2.16a7.052 7.052 0 01-.465 1.597 7.671 7.671 0 10-7.928 13.134l.333.179A7.668 7.668 0 0055.64 9.022c-.242-1.95-1.363-4.225-2.986-6.862zm-7.32 14.525a.656.656 0 11-.305-.875.656.656 0 01.304.875zm9.61-4.608c-1.27 2.887-5.4 2.98-7.895 3.69 0 0-.44.13-.874.31 0 0 .153-.112.35-.245 1.63-1.032 2.438-1.347 3.385-2.152 1.786-1.505 3.262-4.23 3.13-6.673-.243 2.436-2.13 4.925-4.077 6.211-1.334.88-3.85 2.022-3.85 2.022l-.12-.032c-2-.452-2.965-4.328.007-6.346 1.3-.885 2.74-.903 4.197-1.633 1.557-.777 3.175-2.459 3.574-4.252 1.472 2.375 3.462 6.167 2.17 9.102z" fill="#68bd45"/><path d="M36.94 6.788c-.12 0-.233.025-.336.06a.96.96 0 01.403.561c.004.03.013.051.017.082.004.03.01.052.01.08.017.38-.1.428-.183.652a.924.924 0 00.06.851.514.514 0 00.051.095c-.164-1.094.75-1.26.917-1.6.013-.3-.233-.498-.428-.637a.959.959 0 00-.51-.148zm1.376.247c-.018.1-.004.073-.01.126l-.01.112-.03.104c-.01.035-.022.07-.034.104l-.048.1c-.013.017-.022.034-.035.05l-.025.04-.066.086c-.025.026-.047.057-.079.08-.03.022-.05.05-.082.073-.09.07-.195.12-.29.186-.03.021-.06.04-.086.065a.633.633 0 00-.082.07c-.03.025-.05.05-.08.081a.535.535 0 00-.064.086l-.06.091-.047.1-.035.098-.03.11c-.004.017-.004.04-.01.055-.005.017-.003.035-.01.052l-.003.11c0 .024 0 .05.004.078 0 .034.004.07.013.11.008.04.012.068.021.103l.035.103.03.06-.995-.386-.502-.129-.273-.065a8.033 8.033 0 00-.788-.117c-.01 0-.013-.004-.02-.004l-.776-.04-.567.022a8.262 8.262 0 00-.79.095l-.196.035-.39.086-.195.052-.186.082-.142.065c-.01.004-.018.004-.022.01l-.12.06c-.014.003-.023.01-.03.012l-.136.07c-.03.012-.06.03-.086.043-.013.01-.03.017-.04.022l-.112.065a1.088 1.088 0 00-.104.065l-.086.06-.095.07-.074.06c-.01.002-.017.011-.025.016l-.066.056c-.004.01-.012.013-.017.018l-.08.073-.086.083-.073.08c-.01.01-.022.016-.03.024a1.217 1.217 0 01-.073.08c-.004.01-.013.011-.018.02l-.098.104-.234.225c-.08.07-.16.134-.242.19l-.26.164a2.387 2.387 0 01-.273.13 3.116 3.116 0 01-.28.102c-.183.04-.369.113-.529.126-.034 0-.073.01-.109.013l-.108.026-.104.04a1.108 1.108 0 00-.104.047c-.03.021-.066.04-.095.06a.661.661 0 00-.086.072c-.027.026-.06.052-.086.08l-.074.085c-.02.035-.047.066-.065.1a.762.762 0 00-.06.1l-.048.112-.04.113-.02.104c-.014.051-.014.104-.019.128-.005.025 0 .058 0 .088a.247.247 0 00.004.057c.004.03.01.056.018.082l.03.08a.48.48 0 00.047.081l.057.08.073.07a.633.633 0 00.082.068c.104.09.128.12.264.19.022.013.044.022.07.034.012.013.012.017.017.026a.74.74 0 00.022.104.584.584 0 00.034.104l.035.08c.004.01.01.017.013.021l.051.095.066.09.073.083c.026.026.051.047.082.073l.086.065c.03.022.06.04.095.057a.702.702 0 00.1.047.464.464 0 00.086.03c.03.008.056.018.073.022-.013.233-.018.455.018.532.04.086.23-.178.42-.48-.026.3-.044.65 0 .752.043.103.306-.23.532-.6 3.067-.71 5.866 1.41 6.16 4.403-.056-.467-.63-.727-.895-.663-.129.32-.35.732-.706.986a2.8 2.8 0 00-.043-.865 2.8 2.8 0 01-.536 1.09c-.41.03-.82-.168-1.039-.467-.018-.013-.022-.04-.035-.056l-.034-.09a.33.33 0 01-.026-.092c-.004-.032-.004-.06-.004-.095v-.066c.004-.03.013-.059.022-.09l.03-.092c.017-.03.03-.059.05-.09.074-.199.074-.377-.058-.476a.497.497 0 00-.083-.043c-.017-.004-.04-.013-.056-.018l-.035-.013-.09-.022a.326.326 0 00-.092-.012.702.702 0 00-.095-.01c-.02 0-.043.005-.065.005a.336.336 0 00-.095.013l-.09.016-.092.03-.086.04-.082.043c-1.01.658-.406 2.196.28 2.644-.258.047-.523.103-.596.16.178.12.372.218.576.3l.7.196c.36.08.723.104 1.09.083a4.115 4.115 0 003.773-3.513l.026.112.04.243.017.117.01.128.01.143v.07c0 .021.004.046.004.07 0 .02-.004.05-.004.077v.06c0 .03-.004.056-.004.086 0 .016 0 .034-.004.056l-.004.095c-.004.013-.004.026-.004.04l-.013.1c0 .011 0 .024-.004.04l-.017.124v.01l-.026.12-.025.13-.035.133-.035.135-.043.14-.095.25-.052.125-.059.121c-.004.013-.01.022-.013.03a4.122 4.122 0 01-1.328 1.54c-.01.01-.022.012-.03.02l-.095.066.013.026h.004l.182-.026h.004l.336-.06a.662.662 0 00.095-.02l.06-.014.09-.017.08-.02a8.32 8.32 0 001.254-.417 6.918 6.918 0 01-2.687 2.193 7.087 7.087 0 001.474-.255 6.91 6.91 0 004.09-3.266 6.905 6.905 0 01-1.164 2.781c.42-.277.804-.596 1.155-.96a6.856 6.856 0 001.821-3.676c.15.682.19 1.39.126 2.085 3.123-4.357.26-8.874-.94-10.063-.004-.01-.01-.013-.01-.022-.01.052-.012.104-.016.155a5.224 5.224 0 01-.044.29c-.018.095-.047.19-.073.287-.026.097-.065.186-.104.277a3.104 3.104 0 01-.129.264 2.948 2.948 0 01-.155.247 3.08 3.08 0 01-.178.233 3.235 3.235 0 01-.204.217c-.043.04-.082.073-.126.11l-.099.085a2.414 2.414 0 01-.242.17 2.998 2.998 0 01-.255.146 6.551 6.551 0 01-.273.121 3.047 3.047 0 01-.28.091 3.82 3.82 0 01-.29.065c-.096.018-.199.026-.295.035-.07.004-.138.01-.198.01-.099 0-.198-.01-.294-.018a2.184 2.184 0 01-.294-.044 2.186 2.186 0 01-.29-.073h-.004c.095-.01.19-.018.287-.034a3.226 3.226 0 00.57-.157c.092-.034.186-.079.274-.12a3.027 3.027 0 00.26-.143c.081-.056.163-.113.241-.173a2.364 2.364 0 00.22-.195 2.904 2.904 0 00.386-.445c.01-.013.018-.03.026-.044l.126-.198a2.801 2.801 0 00.232-.54c.031-.096.052-.187.074-.28a3.23 3.23 0 00.06-.585c0-.07-.004-.139-.01-.198a8.333 8.333 0 00-.035-.29 3.166 3.166 0 00-.065-.29c-.03-.09-.06-.186-.095-.277a3.649 3.649 0 00-.12-.267 2.473 2.473 0 00-.149-.255 3.383 3.383 0 00-.173-.238l-.198-.22a2.7 2.7 0 00-.113-.108 7.964 7.964 0 00-.6-.425 1.17 1.17 0 00-.087-.043 1.693 1.693 0 00-.41-.182z" fill="#ea2845" fill-rule="evenodd"/><g fill="#c00" fill-rule="evenodd"><path d="M62.442 23.003s1.477-.293 1.264-2.22c-.213-1.926-2.04-1.905-2.04-1.905l-3.256.36.672 6.077 1.636-.18-.162-1.467 1.577 1.31c2.964-.172 2.348-.326.308-1.975zm-.77-1.175l-1.303.144-.154-1.39 1.313-.144s.382.096.443.65c.06.554-.298.74-.298.74z"/><path d="M48.53 26.047l5.87-.649s-1.98-6.072 2.025-9.061c.88-.581 3.542-2.41 7.302-.064.14-.152.273-.277.273-.277s-3.334-3.57-8.235-2.499c-2.466.51-4.374 3.14-5.824 6.496-1.45 3.356-1.411 6.054-1.411 6.054z" fill="none" stroke="#c00" stroke-width="1.363" stroke-linejoin="round"/><path d="M61.192 13.006l-.032-.652c-.093-.039-.347-.128-.976-.235l.032.643c.33.07.653.153.977.244zm.09 3.375l.028.614c.32-.026.644-.022.97.01l-.027-.604a6.892 6.892 0 00-.972-.02zm-5.253-3.886l.097-.01-.26-.57c-.3.034-.606.088-.921.162l.247.55c.277-.06.557-.1.837-.132zm2.348 4.265l.296.643c.265-.167.533-.314.804-.432l-.283-.615c-.32.133-.587.27-.817.404zm-6.23-2.032l-.508-.62a15.48 15.48 0 00-.71.5l.52.628a9.8 9.8 0 01.699-.508zm3.834 3.585l.54.645c.139-.26.308-.503.496-.75l-.508-.61a5.41 5.41 0 00-.528.715zm-1.06 3.27l.853.533a7.773 7.773 0 01.078-1.154l-.757-.475c-.087.372-.134.74-.173 1.096zm-5.493-3.397l-.753-.524c-.225.27-.44.539-.636.805l.815.556c.175-.283.368-.57.574-.837zm-1.563 4.434l-1.157-.283a25.18 25.18 0 00-.356 1.214l1.158.284c.089-.343.24-.84.355-1.215zm7.183 1.437c.076.51.17.92.25 1.206l1.208.288a12.865 12.865 0 01-.371-1.232z"/></g><g transform="matrix(.73006 0 0 .73006 13.097 10.467)"><circle cx="40.701" cy="17.246" r="2.05" fill="#61dafb"/><g stroke="#61dafb" fill="none" transform="translate(40.701 17.246)"><ellipse rx="11" ry="4.2"/><ellipse rx="11" ry="4.2" transform="rotate(60)"/><ellipse rx="11" ry="4.2" transform="rotate(120)"/></g></g><path d="M18.665 16.451c2.468-2.468 4.943-4.931 7.405-7.405.596-.6 1.185-1.214 1.761-1.833.326-.35.663-.686.67-1.197.01-.8-.598-1.362-1.16-1.848-1.114-.968-2.304-1.8-3.627-2.462-5.69-2.845-12.65-2.077-17.616 1.896-1.69 1.352-3.153 3.074-4.161 4.995-3.318 6.326-2.377 14.461 2.852 19.522 1.407 1.361 3.005 2.488 4.787 3.304a16.13 16.13 0 005.2 1.412c1.923.18 3.886.046 5.759-.447 2.31-.607 4.49-1.706 6.32-3.243.667-.559 1.644-1.256 1.643-2.222 0-.508-.306-.838-.622-1.197-.523-.594-1.104-1.153-1.657-1.72-1.55-1.59-3.176-3.108-4.71-4.712a116.97 116.97 0 00-1.834-1.87c-.324-.324-.636-.71-1.01-.973m5.797 10.51c-.832.518-1.609 1.072-2.506 1.484a13.333 13.333 0 01-9.425.658 12.582 12.582 0 01-4.189-2.172c-4.699-3.744-6.577-10.313-4.028-15.866.838-1.824 2.015-3.33 3.505-4.669 3.412-3.065 8.489-3.938 12.79-2.5 1.027.344 1.996.857 2.918 1.417.207.126.831.4.863.666.026.214-.425.571-.564.71-.592.594-1.165 1.203-1.758 1.796-1.814 1.814-3.62 3.635-5.423 5.46-.681.69-1.795 1.502-1.823 2.543-.015.557.372.939.739 1.31.502.507.99 1.027 1.496 1.533 1.8 1.8 3.584 3.622 5.385 5.423.48.48.945.976 1.422 1.459.216.218.524.437.598.748M13.691 6.593c-.856.117-1.737.666-2.037 1.518-.565 1.599.66 3.537 2.448 3.318.915-.113 1.818-.685 2.118-1.598.528-1.6-.776-3.477-2.53-3.238z" fill="#ffd32a"/></svg>
