<svg xmlns="http://www.w3.org/2000/svg" viewBox="0 0 32 32" fill="#8cc84b"><path d="M28.418 1.056a7.052 7.052 0 01-.465 1.597 7.671 7.671 0 10-7.928 13.134l.333.179a7.668 7.668 0 0011.046-8.048c-.242-1.95-1.363-4.225-2.986-6.862zm-7.32 14.525a.656.656 0 11-.305-.875.656.656 0 01.304.875zm9.609-4.608c-1.269 2.887-5.398 2.98-7.894 3.69 0 0-.44.13-.874.31 0 0 .153-.112.35-.245 1.629-1.032 2.438-1.347 3.385-2.152 1.786-1.505 3.262-4.23 3.13-6.673-.243 2.436-2.13 4.925-4.077 6.211-1.334.88-3.85 2.022-3.85 2.022l-.12-.032c-2-.452-2.965-4.328.007-6.346 1.3-.885 2.739-.903 4.197-1.633 1.557-.777 3.175-2.459 3.574-4.252 1.472 2.375 3.462 6.167 2.17 9.102z" fill="#68bd45"/><path d="M6.49 7.763a1.311 1.311 0 011.281-.115l6.179 2.787c.386.174.67.562.704.986l.597 6.648c.042.441-.19.884-.56 1.122l-5.554 3.825a1.285 1.285 0 01-1.302.081l-1.847-.857c-.126-.06-.265-.105-.36-.213.065-.107.197-.132.301-.186.238-.1.45-.239.664-.385.053-.045.124-.036.181-.005l1.575.73c.112.053.213-.038.3-.098l5.452-3.757a.19.19 0 00.088-.197l-.591-6.583a.206.206 0 00-.142-.194L7.326 8.59a.203.203 0 00-.229.02l-5.53 3.816a.204.204 0 00-.105.215l.591 6.584c0 .078.048.148.123.175l1.636.739c.306.131.673.187.985.043a.742.742 0 00.415-.737l-.586-6.544c-.015-.096.069-.185.164-.183l.748-.068c.099-.01.185.087.18.185l.59 6.586c.054.585-.13 1.242-.645 1.578-.635.404-1.466.406-2.155.134l-1.757-.775A1.21 1.21 0 011 19.353l-.597-6.647a1.216 1.216 0 01.536-1.111zM8.6 12.22c.846-.126 1.758-.191 2.561.16.621.267 1.01.911 1.08 1.57-.009.09-.097.147-.182.148-.246.022-.493.048-.74.065-.105.013-.175-.078-.196-.17-.1-.308-.3-.604-.61-.73-.475-.187-1.002-.128-1.497-.078-.361.052-.748.118-1.035.358-.222.183-.263.52-.156.77.096.181.32.222.502.262 1.05.176 2.133.057 3.17.315.43.106.861.349 1.043.772.239.567.22 1.273-.153 1.779-.302.416-.774.665-1.253.828-.638.204-1.314.268-1.98.262-.629-.015-1.29-.12-1.809-.5-.442-.32-.692-.858-.72-1.395-.004-.091.08-.162.168-.163l.739-.066c.099-.016.18.063.193.156.072.292.214.602.491.75.534.281 1.166.202 1.745.159.477-.064 1.014-.119 1.377-.471.19-.2.224-.507.145-.762-.08-.214-.324-.295-.527-.35-1.041-.229-2.129-.014-3.163-.286-.42-.107-.838-.344-1.031-.748-.271-.571-.237-1.312.181-1.807.403-.49 1.038-.722 1.647-.84z"/><path d="M10.114 31.46l7.234-1.592s-2.771-6.005 1.245-9.568c.893-.705 3.671-3.217 9.718-.515.136-.173.267-.317.267-.317s-5.807-3.706-10.992-2.008c-2.622.826-5.367 3.975-6.585 7.603-1.199 3.57-.897 6.31-.887 6.395zm7.106-3.485c.126.481.258.865.364 1.13l1.185.153a12.042 12.042 0 01-.481-1.142zm-7.207-1.121L8.875 26.7c-.087.432-.18.932-.216 1.2l1.138.153c.05-.337.144-.827.216-1.2zm1.865-4.7l-.776-.425c-.188.28-.366.56-.527.835l.838.45c.14-.291.295-.584.465-.86zm4.967 3.466l.871.423a7.61 7.61 0 01-.043-1.114l-.774-.377a9.01 9.01 0 00-.054 1.068zm.68-3.242l.584.562c.106-.262.242-.513.398-.77l-.55-.53a5.17 5.17 0 00-.432.738zm-2.784-3.707l-.552-.542c-.202.169-.412.35-.628.551l.562.548c.208-.198.406-.385.618-.557zm4.687 1.493l.35.586a5.95 5.95 0 01.726-.496l-.334-.561c-.29.161-.536.321-.742.471zm-1.18-3.273l.09-.02-.305-.518a7.371 7.371 0 00-.866.25l.293.502a7.56 7.56 0 01.787-.214zm4.017 2.112l.09.585c.304-.058.615-.088.93-.09l-.088-.576a6.655 6.655 0 00-.932.081zm.441-2.133l-.097-.622c-.093-.027-.346-.087-.96-.125l.096.613c.325.035.643.08.961.134z" fill="#d40000"/></svg>
